<svg width="250" height="250" viewBox="0 0 250 250" fill="none" xmlns="http://www.w3.org/2000/svg">
<path d="M112.868 0.0164903C111.082 0.126771 108.358 0.435556 106.637 0.722285C103.902 1.17443 101.288 1.8692 101.288 2.12285C101.288 2.16696 101.465 4.47182 101.674 7.22883C101.884 9.98583 102.06 12.4451 102.06 12.6877V13.1288L98.0567 14.0552C95.862 14.5735 93.8107 15.0477 93.5129 15.1139L92.9614 15.2462L90.9763 10.5042C89.8844 7.90154 88.9249 5.74004 88.8477 5.70696C88.6051 5.61873 85.9471 5.89443 84.2487 6.18116C80.2012 6.8649 75.6463 8.36471 72.5031 10.063C71.2238 10.7468 69.415 11.8827 69.415 12.004C69.415 12.0591 70.2091 14.5294 71.1796 17.507C72.1391 20.4845 72.9112 22.9548 72.8891 23.0099C72.8229 23.0982 64.4631 27.7851 64.2867 27.8182C64.2315 27.8292 62.875 26.2963 61.2758 24.3995C59.6877 22.5027 58.1436 20.6941 57.8569 20.3742L57.3385 19.7898L56.2136 20.1206C53.2579 21.0139 49.7838 22.8997 46.9605 25.1714C45.6039 26.2742 43.6077 28.3365 42.9791 29.2959C42.7254 29.6819 42.4387 30.0789 42.3504 30.1671C42.2071 30.3215 42.549 30.884 45.2179 35.0195C46.8833 37.6 48.295 39.7946 48.3501 39.8939C48.4383 40.0483 48.0633 40.4232 46.2436 42.0554C44.6996 43.4449 43.4313 44.7131 42.0416 46.257C40.4094 48.0767 40.0344 48.4516 39.88 48.3634C39.7807 48.3083 37.586 46.8967 35.0053 45.2314C30.8695 42.5627 30.307 42.2208 30.1526 42.3641C30.0644 42.4524 29.6674 42.7391 29.2814 42.9927C28.3219 43.6213 26.2595 45.6174 25.1566 46.9739C22.8847 49.797 20.9988 53.2709 20.1054 56.2264L19.7746 57.3512L20.3591 57.8696C20.6789 58.1563 22.4876 59.7002 24.3846 61.2883C26.2815 62.8873 27.8145 64.2438 27.8035 64.2989C27.7704 64.4754 23.0832 72.8346 22.995 72.9008C22.9398 72.9228 20.4694 72.1509 17.4916 71.1914C14.5139 70.221 12.0434 69.4269 11.9883 69.4269C11.8669 69.4269 10.731 71.2355 10.0472 72.5148C8.34877 75.6578 6.84886 80.2124 6.16508 84.2597C5.87833 85.958 5.60261 88.6157 5.69084 88.8583C5.72393 88.9355 7.88557 89.895 10.4884 90.9868L15.2307 92.9718L15.0984 93.5232C15.0322 93.821 14.558 95.8722 14.0396 98.0668L13.1132 102.07H12.672C12.4294 102.07 9.97 101.893 7.21281 101.684C4.45562 101.474 2.15061 101.298 2.10649 101.298C1.85283 101.298 1.15802 103.912 0.705841 106.647C0.187489 109.723 0 111.94 0 115.138C0 118.138 0.132345 119.373 0.573496 120.928L0.783042 121.645L6.23125 121.998C9.23107 122.185 11.6905 122.35 11.7125 122.35C11.7236 122.362 11.7346 123.553 11.7346 125.008C11.7346 126.464 11.7236 127.655 11.7125 127.666C11.6905 127.666 9.23107 127.831 6.23125 128.019L0.783042 128.372L0.573496 129.089C0.132345 130.644 0 131.879 0 134.878C0 138.076 0.187489 140.293 0.705841 143.37C1.15802 146.105 1.85283 148.719 2.10649 148.719C2.15061 148.719 4.45562 148.542 7.21281 148.333C9.97 148.123 12.4294 147.947 12.672 147.947H13.1132L14.0396 151.95C14.558 154.144 15.0322 156.196 15.0984 156.493L15.2307 157.045L10.4884 159.03C7.88557 160.122 5.72393 161.081 5.69084 161.158C5.60261 161.401 5.87833 164.059 6.16508 165.757C6.84886 169.804 8.34877 174.359 10.0472 177.502C10.731 178.781 11.8669 180.59 11.9883 180.59C12.0434 180.59 14.5139 179.796 17.4916 178.825C20.4694 177.866 22.9398 177.094 22.995 177.116C23.0832 177.182 27.7704 185.541 27.8035 185.718C27.8145 185.773 26.2815 187.129 24.3846 188.728C22.4876 190.316 20.6789 191.86 20.3591 192.147L19.7746 192.665L20.1054 193.79C20.9988 196.746 22.8847 200.219 25.1566 203.043C26.2595 204.399 28.3219 206.395 29.2814 207.024C29.6674 207.277 30.0644 207.564 30.1526 207.652C30.307 207.796 30.8695 207.454 35.0053 204.785C37.586 203.12 39.7807 201.708 39.88 201.653C40.0344 201.565 40.4094 201.94 42.0416 203.759C43.4313 205.303 44.6996 206.572 46.2436 207.961C48.0633 209.593 48.4383 209.968 48.3501 210.123C48.295 210.222 46.8833 212.416 45.2179 214.997C42.549 219.133 42.2071 219.695 42.3504 219.849C42.4387 219.938 42.7254 220.335 42.9791 220.721C43.6077 221.68 45.6039 223.742 46.9605 224.845C49.7838 227.117 53.2579 229.003 56.2136 229.896L57.3385 230.227L57.8569 229.642C58.1436 229.322 59.6877 227.514 61.2758 225.617C62.875 223.72 64.2315 222.187 64.2867 222.198C64.4631 222.231 72.8229 226.918 72.8891 227.007C72.9112 227.062 72.1391 229.532 71.1796 232.51C70.2091 235.487 69.415 237.957 69.415 238.013C69.415 238.134 71.2238 239.27 72.5031 239.953C75.6463 241.652 80.2012 243.152 84.2487 243.835C85.9471 244.122 88.6051 244.398 88.8477 244.31C88.9249 244.276 89.8844 242.115 90.9763 239.512L92.9614 234.77L93.5129 234.903C93.8107 234.969 95.862 235.443 98.0567 235.961L102.06 236.888V237.329C102.06 237.571 101.884 240.031 101.674 242.788C101.465 245.545 101.288 247.85 101.288 247.894C101.288 248.147 103.902 248.842 106.637 249.294C109.67 249.801 111.942 249.989 115.074 250C118.008 250 118.967 249.912 120.622 249.493C121.405 249.294 121.592 249.206 121.636 249.03C121.658 248.897 121.813 246.636 121.967 244.001C122.121 241.365 122.276 238.994 122.309 238.729L122.364 238.266H125.011C126.456 238.266 127.647 238.277 127.658 238.288C127.658 238.31 127.823 240.77 128.011 243.769L128.364 249.217L129.081 249.427C130.636 249.868 131.871 250 134.871 250C138.069 250 140.286 249.813 143.363 249.294C146.098 248.842 148.712 248.147 148.712 247.894C148.712 247.85 148.535 245.545 148.326 242.788C148.116 240.031 147.94 237.571 147.94 237.329V236.888L151.943 235.961C154.138 235.443 156.189 234.969 156.487 234.903L157.039 234.77L159.024 239.512C160.116 242.115 161.075 244.276 161.152 244.31C161.395 244.398 164.053 244.122 165.751 243.835C169.799 243.152 174.354 241.652 177.497 239.953C178.776 239.27 180.585 238.134 180.585 238.013C180.585 237.957 179.791 235.487 178.82 232.51C177.861 229.532 177.089 227.062 177.111 227.007C177.177 226.918 185.537 222.231 185.713 222.198C185.768 222.187 187.125 223.72 188.724 225.617C190.312 227.514 191.856 229.322 192.143 229.642L192.661 230.227L193.786 229.896C196.742 229.003 200.216 227.117 203.04 224.845C204.396 223.742 206.392 221.68 207.021 220.721C207.275 220.335 207.561 219.938 207.65 219.849C207.793 219.695 207.451 219.133 204.782 214.997C203.117 212.416 201.705 210.222 201.65 210.123C201.562 209.968 201.937 209.593 203.756 207.961C205.3 206.572 206.569 205.303 207.958 203.759C209.591 201.94 209.966 201.565 210.12 201.653C210.219 201.708 212.414 203.12 214.995 204.785C219.13 207.454 219.693 207.796 219.847 207.652C219.936 207.564 220.333 207.277 220.719 207.024C221.678 206.395 223.741 204.399 224.843 203.043C227.115 200.219 229.001 196.746 229.895 193.79L230.225 192.665L229.641 192.147C229.321 191.86 227.512 190.316 225.615 188.728C223.718 187.129 222.185 185.773 222.196 185.718C222.23 185.541 226.917 177.182 227.005 177.116C227.06 177.094 229.531 177.866 232.508 178.825C235.486 179.796 237.957 180.59 238.012 180.59C238.133 180.59 239.269 178.781 239.953 177.502C241.651 174.359 243.151 169.804 243.835 165.757C244.122 164.059 244.397 161.401 244.309 161.158C244.276 161.081 242.114 160.122 239.512 159.03L234.769 157.045L234.902 156.493C234.968 156.196 235.442 154.144 235.96 151.95L236.887 147.947H237.328C237.571 147.947 240.03 148.123 242.787 148.333C245.544 148.542 247.849 148.719 247.894 148.719C248.147 148.719 248.842 146.105 249.294 143.37C249.813 140.293 250 138.076 250 134.878C250 131.879 249.868 130.644 249.427 129.089L249.217 128.372L243.769 128.019C240.769 127.831 238.31 127.666 238.298 127.666C238.276 127.655 238.265 126.464 238.265 125.008C238.265 123.553 238.276 122.362 238.298 122.35C238.31 122.35 240.769 122.185 243.769 121.998L249.217 121.645L249.427 120.928C249.868 119.373 250 118.138 250 115.138C250 111.94 249.813 109.723 249.294 106.647C248.842 103.912 248.147 101.298 247.894 101.298C247.849 101.298 245.544 101.474 242.787 101.684C240.03 101.893 237.571 102.07 237.328 102.07H236.887L235.96 98.0668C235.442 95.8722 234.968 93.821 234.902 93.5232L234.769 92.9718L239.512 90.9868C242.114 89.895 244.276 88.9355 244.309 88.8583C244.397 88.6157 244.122 85.958 243.835 84.2597C243.151 80.2124 241.651 75.6578 239.953 72.5148C239.269 71.2355 238.133 69.4269 238.012 69.4269C237.957 69.4269 235.486 70.221 232.508 71.1914C229.531 72.1509 227.06 72.9228 227.005 72.9008C226.917 72.8346 222.23 64.4754 222.196 64.2989C222.185 64.2438 223.718 62.8873 225.615 61.2883C227.512 59.7002 229.321 58.1563 229.641 57.8696L230.225 57.3512L229.895 56.2264C229.001 53.2709 227.115 49.797 224.843 46.9739C223.741 45.6174 221.678 43.6213 220.719 42.9927C220.333 42.7391 219.936 42.4524 219.847 42.3641C219.693 42.2208 219.13 42.5627 214.995 45.2314C212.414 46.8967 210.219 48.3083 210.12 48.3634C209.966 48.4516 209.591 48.0767 207.958 46.257C206.569 44.7131 205.3 43.4449 203.756 42.0554C201.937 40.4232 201.562 40.0483 201.65 39.8939C201.705 39.7946 203.117 37.6 204.782 35.0195C207.451 30.884 207.793 30.3215 207.65 30.1671C207.561 30.0789 207.275 29.6819 207.021 29.2959C206.392 28.3365 204.396 26.2742 203.04 25.1714C200.216 22.8997 196.742 21.0139 193.786 20.1206L192.661 19.7898L192.143 20.3742C191.856 20.6941 190.312 22.5027 188.724 24.3995C187.125 26.2963 185.768 27.8292 185.713 27.8182C185.537 27.7851 177.177 23.0982 177.111 23.0099C177.089 22.9548 177.861 20.4845 178.82 17.507C179.791 14.5294 180.585 12.0591 180.585 12.004C180.585 11.8827 178.776 10.7468 177.497 10.063C174.354 8.36471 169.799 6.8649 165.751 6.18116C164.053 5.89443 161.395 5.61873 161.152 5.70696C161.075 5.74004 160.116 7.90154 159.024 10.5042L157.039 15.2462L156.487 15.1139C156.189 15.0477 154.138 14.5735 151.943 14.0552L147.94 13.1288V12.6877C147.94 12.4451 148.116 9.98583 148.326 7.22883C148.535 4.47182 148.712 2.16696 148.712 2.12285C148.712 1.8692 146.098 1.17443 143.363 0.722285C140.286 0.203967 138.069 0.0164903 134.871 0.0164903C131.871 0.0164903 130.636 0.148827 129.081 0.589948L128.364 0.799481L128.011 6.24733C127.823 9.24696 127.658 11.7062 127.658 11.7172C127.647 11.7393 126.456 11.7503 125 11.7503C123.544 11.7503 122.353 11.7393 122.342 11.7172C122.342 11.7062 122.177 9.24696 121.989 6.24733L121.636 0.799481L120.919 0.589948C119.64 0.226023 118.162 0.0606024 115.846 0.0164903C114.6 -0.00556578 113.265 -0.00556578 112.868 0.0164903ZM133.051 16.0954C147.41 17.3746 159.884 20.7713 172.258 26.7926C189.584 35.218 204.55 48.2862 215.292 64.354C222.88 75.7129 228.317 88.3952 231.251 101.574C233.071 109.79 233.854 116.969 233.854 125.56C233.854 130.941 233.633 134.547 233.016 139.455C229.608 166.352 216.285 191.088 195.694 208.722C171.751 229.234 140.01 238.321 108.876 233.59C80.532 229.278 55.0887 214.027 37.8066 191.011C25.8294 175.064 18.3408 155.821 16.3777 135.926C15.705 129.188 15.6498 122.362 16.2013 115.855C18.0431 94.3283 26.083 73.9595 39.3947 57.0755C43.6408 51.7049 49.3206 45.838 54.6365 41.3496C68.5879 29.5716 85.3957 21.477 103.384 17.8819C108.258 16.9114 112.901 16.3049 118.328 15.941C120.633 15.7866 130.801 15.8969 133.051 16.0954Z" fill="black"/>
<path d="M126.103 18.9736C124.923 19.3045 124.118 19.7897 123.169 20.7271C121.746 22.1497 121.107 23.7157 121.107 25.7559C121.107 27.763 121.758 29.3621 123.114 30.7295C124.393 32.0198 125.772 32.6153 127.47 32.6153C129.588 32.6264 131.397 31.6779 132.676 29.8804C135.345 26.1419 133.823 20.7602 129.654 19.1721C128.706 18.8193 127.018 18.72 126.103 18.9736ZM128.706 22.1828C130.569 23.2525 131 26.5168 129.533 28.3806C128.132 30.145 125.948 29.7701 124.923 27.5755C124.647 26.98 124.614 26.7925 124.614 25.7559C124.625 24.3774 124.857 23.6495 125.562 22.8445C126.489 21.7858 127.625 21.5542 128.706 22.1828Z" fill="black"/>
<path d="M136.393 19.8229C136.338 19.9001 135.996 22.7895 135.632 26.2302C134.992 32.417 134.992 32.5052 135.202 32.6596C135.367 32.7809 135.742 32.814 136.856 32.7919L138.29 32.7588L138.521 30.5753C138.654 29.3842 138.786 28.3697 138.83 28.3256C138.863 28.2925 139.955 28.3586 141.234 28.4799C142.624 28.6123 143.661 28.6674 143.771 28.6123C143.914 28.5351 143.958 28.2594 144.025 27.2448C144.069 26.55 144.08 25.9104 144.047 25.8222C144.014 25.734 143.815 25.6678 143.539 25.6678C143.12 25.6568 140.131 25.2598 139.569 25.1384C139.315 25.0833 139.304 25.0613 139.37 24.2011C139.404 23.7158 139.459 23.2857 139.492 23.2416C139.536 23.2085 140.782 23.3188 142.271 23.4953C144.047 23.6938 145.006 23.771 145.083 23.6938C145.227 23.5504 145.447 20.9037 145.326 20.7934C145.249 20.7052 137.231 19.6906 136.69 19.6906C136.591 19.6906 136.448 19.7568 136.393 19.8229Z" fill="black"/>
<path d="M106.075 20.8926C104.928 21.0911 104.663 21.1794 104.762 21.3448C104.795 21.3999 105.314 24.3003 105.909 27.7962C106.516 31.2921 107.023 34.1814 107.045 34.2035C107.1 34.2586 115.482 33.0676 115.626 32.9794C115.769 32.8911 115.769 30.1782 115.626 29.9466C115.537 29.8033 115.151 29.8364 112.582 30.1451C110.972 30.3437 109.637 30.498 109.615 30.476C109.582 30.4429 108.115 22.216 107.961 21.1463C107.894 20.7052 107.861 20.6831 107.542 20.6941C107.343 20.7052 106.692 20.7934 106.075 20.8926Z" fill="black"/>
<path d="M153.741 23.4622C153.267 24.6201 149.693 35.0637 149.726 35.207C149.748 35.3173 150.245 35.5489 151.127 35.8577C151.877 36.1224 152.55 36.3429 152.616 36.3429C152.682 36.3429 153.101 35.3945 153.553 34.2476C154.006 33.0896 154.425 32.064 154.502 31.9648C154.623 31.7994 154.667 31.7994 155.119 31.9758L155.605 32.1633L156.366 34.8541C156.785 36.3429 157.193 37.6111 157.292 37.6883C157.38 37.7655 158.185 38.1405 159.068 38.5154C160.336 39.0558 160.711 39.1771 160.81 39.0668C160.921 38.9566 160.799 38.2839 160.226 35.9018C159.84 34.2476 159.531 32.825 159.564 32.7478C159.586 32.6816 159.807 32.5934 160.038 32.5603C161.075 32.3949 162.266 31.4906 162.807 30.4429C163.071 29.9577 163.104 29.7592 163.104 28.8328C163.104 27.8403 163.082 27.741 162.685 26.936C162.454 26.4618 162.156 26.0096 162.023 25.9214C161.483 25.5685 154.546 23.1093 154.094 23.1093C153.961 23.1093 153.829 23.2416 153.741 23.4622ZM157.799 27.4874C158.461 27.6859 159.013 27.8513 159.035 27.8513C159.046 27.8513 159.123 28.0278 159.189 28.2483C159.344 28.7115 159.266 29.3401 159.024 29.6158C158.869 29.7923 158.759 29.7702 157.248 29.3291C156.366 29.0754 155.616 28.8439 155.594 28.8218C155.572 28.7997 155.693 28.3696 155.847 27.8734C156.112 27.0683 156.167 26.9801 156.377 27.0463C156.498 27.0794 157.138 27.2779 157.799 27.4874Z" fill="black"/>
<path d="M95.2003 23.6827C94.3401 23.9033 93.8989 24.0687 93.8989 24.168C93.8989 24.4216 96.7774 36.7179 96.8546 36.8061C96.9318 36.8833 105.788 34.8541 105.909 34.7438C105.986 34.6666 105.589 31.8986 105.479 31.7883C105.435 31.7332 104.09 31.9868 102.49 32.3508C100.891 32.7147 99.5677 33.0014 99.5457 32.9794C99.5236 32.9573 98.9611 30.8179 98.2884 28.2152C97.6266 25.6237 97.0642 23.4842 97.0642 23.4732C96.9318 23.3298 96.2481 23.407 95.2003 23.6827Z" fill="black"/>
<path d="M85.0648 27.5976L83.5869 28.3475L83.609 28.9541C83.7744 32.6705 84.3479 41.8238 84.4251 41.901C84.4802 41.9671 85.0758 41.7686 85.925 41.4047L87.3367 40.7982L87.3918 39.4417L87.447 38.0742L89.2226 37.2251L90.9982 36.3759L92.057 37.3574L93.1268 38.3499L94.1966 37.997C95.6524 37.5118 96.4354 37.1369 96.4354 36.9273C96.4354 36.784 86.8625 27.0021 86.6088 26.8808C86.5757 26.8698 85.8809 27.1896 85.0648 27.5976ZM88.7925 33.9828C88.7263 34.049 87.1271 34.6886 87.0499 34.6886C86.9948 34.6886 86.9507 34.1041 86.9507 33.3984V32.097L87.8881 33.0344C88.3955 33.5417 88.8035 33.9718 88.7925 33.9828Z" fill="black"/>
<path d="M166.623 27.7189C166.413 27.8622 161.362 39.2983 161.439 39.4858C161.505 39.6843 169.6 43.7316 169.909 43.7316C170.063 43.7316 170.262 43.4118 170.703 42.4854C171.023 41.8127 171.266 41.2061 171.233 41.151C171.21 41.1069 169.975 40.4673 168.486 39.7504L165.795 38.4491L165.983 38.0301C166.071 37.7985 166.259 37.3463 166.391 37.0375C166.567 36.6295 166.678 36.4751 166.799 36.5082C166.887 36.5413 168.056 37.0265 169.391 37.6C171.012 38.2837 171.872 38.6035 171.994 38.5374C172.082 38.4933 172.402 37.9308 172.699 37.2802C173.152 36.2766 173.207 36.0891 173.074 35.9568C172.986 35.8796 171.85 35.3061 170.549 34.6886C169.247 34.071 168.133 33.5196 168.078 33.4645C167.99 33.3873 168.508 31.9316 168.63 31.9316C168.663 31.9316 169.953 32.483 171.497 33.1557C173.846 34.1703 174.343 34.3577 174.453 34.2364C174.685 33.9718 175.545 31.9536 175.49 31.7992C175.457 31.722 173.527 30.7736 171.199 29.6819C166.292 27.399 166.777 27.6086 166.623 27.7189Z" fill="black"/>
<path d="M75.5139 32.0972C74.8301 32.5493 74.2676 32.9794 74.2676 33.0346C74.2676 33.1007 74.7419 33.983 75.3264 34.9976C75.8999 36.0121 76.3852 36.8723 76.3962 36.9164C76.4293 37.0267 73.4956 38.8905 73.3853 38.8243C73.3302 38.7912 72.7898 37.9751 72.1722 37.0047C71.5656 36.0452 70.97 35.1409 70.8597 34.9976L70.6502 34.7439L69.2606 35.7916C67.9923 36.751 67.7165 37.0377 67.9592 37.137C68.0033 37.148 69.3378 39.2544 70.9259 41.8019C74.8632 48.1319 74.7198 47.9224 74.8411 47.9224C75.0838 47.9224 77.4549 46.202 77.466 46.0256C77.466 45.9153 76.9697 44.989 76.3631 43.9633C75.7565 42.9267 75.2492 42.0445 75.2382 41.9783C75.194 41.8349 77.7417 39.9822 78.0395 39.9491C78.227 39.9271 78.4916 40.269 79.5284 41.9121C80.2121 43.0039 80.8408 43.9082 80.918 43.9192C81.1275 43.9633 83.5759 42.5959 83.62 42.4084C83.6641 42.1878 77.1131 31.3362 76.9145 31.2921C76.8263 31.2811 76.1866 31.645 75.5139 32.0972Z" fill="black"/>
<path d="M177.773 34.9753C177.078 35.2179 176.548 35.7252 176.162 36.5082C175.865 37.1148 175.798 37.3905 175.754 38.2507C175.732 38.8351 175.754 39.4637 175.831 39.7174C175.953 40.1475 176.89 41.3936 178.236 42.8935C179.471 44.272 179.438 45.2755 178.181 45.2755C176.67 45.2755 175.512 43.6544 175.986 42.2428C176.085 41.9671 176.14 41.6804 176.107 41.6032C176.052 41.4598 173.626 40.0923 173.427 40.0923C173.372 40.0923 173.118 40.7209 172.865 41.4819C172.457 42.6839 172.401 42.9707 172.457 43.5221C172.644 45.6505 174.96 47.823 177.662 48.4185C179.636 48.8596 181.324 48.0546 182.272 46.2239C182.592 45.6064 182.625 45.463 182.625 44.5035C182.625 43.5441 182.592 43.3897 182.261 42.695C181.831 41.8017 181.258 41.0077 180.287 39.949C179.901 39.5299 179.482 38.9895 179.372 38.7579C179.173 38.383 179.173 38.3278 179.328 38.1735C179.68 37.8206 180.783 38.0742 181.258 38.6146C181.677 39.0888 181.93 39.7946 181.93 40.4563V41.1069L182.89 41.548C183.408 41.7907 183.993 42.0002 184.169 42.0112C184.467 42.0222 184.533 41.9561 184.831 41.3606C185.129 40.7761 185.162 40.5886 185.162 39.6953C185.162 38.769 185.129 38.6477 184.743 37.8647C184.048 36.4531 182.68 35.4054 180.971 34.9643C180.144 34.7548 178.368 34.7548 177.773 34.9753Z" fill="black"/>
<path d="M119.761 37.6772C100.031 39.0006 82.032 46.4335 67.3196 59.3253C65.566 60.8582 62.0478 64.332 60.4376 66.1185C57.901 68.9197 55.1769 72.3714 53.1476 75.3269C52.7396 75.9335 52.1992 76.6834 51.9676 76.9922C51.7359 77.301 51.5485 77.5877 51.5485 77.6428C51.5485 77.6869 51.1294 78.4038 50.6331 79.2309C43.2438 91.3066 38.9646 105.059 38.0934 119.494C37.95 121.832 37.95 126.971 38.0934 129.309C39.2845 149.06 46.8502 167.466 59.8752 182.299C68.1247 191.684 78.8446 199.547 90.3256 204.631C106.284 211.7 123.699 213.883 140.981 210.961C160.866 207.608 179.284 197.209 192.397 181.913C207.859 163.893 215.237 140.536 212.954 116.903C211.135 98.1109 203.227 80.3668 190.39 66.284C181.467 56.4911 170.229 48.7163 157.811 43.7868C149.704 40.5556 141.742 38.6808 132.61 37.8206C130.371 37.6111 122.077 37.5118 119.761 37.6772ZM128.474 39.541C131.121 39.6623 133.922 39.8828 135.974 40.1585C138.323 40.4563 140.22 40.7871 140.22 40.8754C140.22 40.9305 140.131 40.9746 140.021 40.9746C139.646 40.9746 136.724 41.7576 135.268 42.2539C134.452 42.5296 133.15 43.0479 132.378 43.4118C131.606 43.7757 130.812 44.0956 130.603 44.1286C130.062 44.2169 128.562 43.8419 124.283 42.5627C121.019 41.5812 118.096 40.7541 115.967 40.2027C115.714 40.1365 115.515 40.0593 115.526 40.0372C115.615 39.96 119.629 39.6292 121.526 39.552C124.449 39.4197 125.662 39.4197 128.474 39.541ZM110.883 41.0298C111.137 41.118 112.626 41.526 114.181 41.923C117.721 42.8273 119.596 43.3567 124.173 44.7241C128.816 46.1027 129.268 46.2129 130.404 46.2129C131.331 46.2129 131.353 46.2019 133.051 45.4189C135.654 44.2169 138.113 43.4559 141.488 42.8053C144.697 42.1877 146.319 42.0554 147.223 42.3421C147.642 42.4744 147.598 42.4855 146.23 42.5627C141.951 42.8053 138.598 43.7537 134.374 45.8931C133.371 46.4004 131.882 47.2496 131.066 47.7899C130.25 48.3193 129.522 48.7935 129.467 48.8266C129.4 48.8707 128.992 48.606 128.551 48.2641C127.68 47.5694 125.971 46.632 125.011 46.3232C124.68 46.2129 124.052 45.9372 123.632 45.7056C122.783 45.2645 121.14 44.7241 119.816 44.4595C116.739 43.864 112.46 43.9522 110.133 44.68C109.813 44.7793 109.538 44.8455 109.527 44.8234C109.494 44.7903 110.365 40.8643 110.398 40.8643C110.409 40.8643 110.63 40.9415 110.883 41.0298ZM108.016 41.8458C108.016 42.0884 107.001 46.2129 106.891 46.4225C106.825 46.5438 106.681 46.7754 106.571 46.9298C106.417 47.1503 106.053 49.5655 104.817 58.818L103.262 70.4305L103.461 70.8385C103.714 71.3569 104.222 71.6436 105.016 71.7097C105.634 71.7649 105.7 71.7428 107.023 71.0591C108.655 70.2099 109.902 69.7688 110.883 69.6916C111.368 69.6585 111.832 69.5262 112.317 69.2946C113.298 68.8204 114.92 68.2911 116.475 67.9271C117.644 67.6514 117.986 67.6183 119.816 67.6073C121.625 67.6073 121.956 67.6404 122.739 67.861C124.537 68.3793 125.618 69.2174 126.279 70.6069C126.732 71.5554 126.963 71.7428 127.702 71.7428C128.22 71.7428 128.342 71.6877 129.092 71.1253C131.683 69.1843 135.577 67.6845 139.668 67.0559C140.308 66.9567 141.687 66.8464 142.734 66.8133L144.631 66.7471L145.216 66.295C145.536 66.0413 146.385 65.4679 147.091 65.0157C147.951 64.4643 148.425 64.0894 148.535 63.8578C148.745 63.4608 151.259 44.8124 151.171 44.3713C151.138 44.2058 150.94 43.9191 150.719 43.7206C150.499 43.5221 150.377 43.3456 150.443 43.3236C150.686 43.2354 157.425 45.6174 157.425 45.7828C157.425 45.8159 157.248 45.9813 157.039 46.1688C156.487 46.6541 155.903 47.9113 155.77 48.9148C155.55 50.4146 155.803 51.9475 156.719 54.8148C157.568 57.4615 157.689 58.2004 157.678 60.9905C157.678 62.6557 157.623 63.5931 157.491 64.343C157.303 65.4017 156.774 66.9015 156.465 67.2434C156.267 67.464 152.991 68.9638 150.73 69.857C143.484 72.7354 135.852 74.4778 127.923 75.0512C125.937 75.1946 120.434 75.1946 118.438 75.0512C111.655 74.566 106.372 73.3309 102.501 71.3458C100.494 70.3092 100.682 70.6511 100.979 68.5226C101.288 66.2619 101.31 63.0086 101.023 61.3875C100.649 59.2812 99.9096 57.5828 98.3104 55.1456C96.5899 52.543 96.0716 51.1976 96.0605 49.3559C96.0605 47.3378 96.8326 45.7056 98.2442 44.7793C99.2699 44.0956 103.935 42.3311 105.7 41.9561C106.703 41.7466 108.016 41.6804 108.016 41.8458ZM148.977 44.8344C149.021 44.8896 148.535 48.8817 147.863 53.8443L146.66 62.755L146.197 63.0748C145.944 63.2512 145.723 63.3836 145.69 63.3505C145.668 63.3284 146.186 59.5348 146.848 54.9251C147.51 50.3154 148.05 46.4886 148.05 46.4114C148.05 46.3453 147.918 46.1357 147.763 45.9483C147.532 45.6615 147.399 45.6064 147.024 45.6064C146.771 45.6064 143.914 46.1798 140.672 46.8746C137.429 47.5804 134.76 48.1208 134.738 48.0987C134.661 48.0326 135.93 47.3929 137.363 46.7864C140.032 45.6505 143.01 44.8785 145.569 44.68C146.396 44.6139 148.866 44.7241 148.977 44.8344ZM95.1121 44.9999C95.1121 45.0329 95.0349 45.1763 94.9466 45.3197C94.6047 45.838 94.1195 47.3929 93.9982 48.3524C93.6783 50.8668 94.4283 53.1496 96.6781 56.5131C97.6156 57.9027 98.3214 59.3473 98.6854 60.6266C99.0383 61.8617 99.2368 64.0563 99.1486 65.6223C99.0493 67.1441 98.8288 68.9307 98.7185 68.9307C98.531 68.9307 97.0311 67.6735 96.3032 66.9015C93.921 64.3651 91.2961 59.5458 90.4469 56.1382C89.5536 52.5761 89.7631 50.7565 91.4726 47.3709C91.7152 46.8856 91.9137 46.4225 91.9137 46.3342C91.9137 46.235 92.4872 45.9483 93.4357 45.5733C94.9687 44.9447 95.1121 44.9006 95.1121 44.9999ZM116.916 46.235C116.872 46.2681 116.486 46.4445 116.056 46.621C114.468 47.2606 113.166 48.1539 111.688 49.6427C111.126 50.2161 110.883 50.547 110.828 50.8116C110.795 51.0101 110.497 54.5722 110.166 58.7298C109.472 67.4529 109.472 67.4419 109.306 67.486C108.92 67.5853 106.88 68.28 106.317 68.5116C105.964 68.655 105.656 68.7653 105.645 68.7432C105.622 68.7212 106.196 64.321 106.913 58.9503C107.641 53.5797 108.258 48.9479 108.302 48.6612C108.413 47.8341 108.799 47.4701 110.144 46.9518C110.762 46.7092 111.644 46.4556 112.096 46.3784C112.549 46.3122 113.001 46.235 113.089 46.2129C113.431 46.1468 116.982 46.1578 116.916 46.235ZM161.505 47.4922L162.277 47.8451V48.7714C162.277 49.9514 162.487 50.7896 163.104 52.0578C163.744 53.3922 164.626 54.5391 166.446 56.4359C167.924 57.9688 168.464 58.6856 168.619 59.3032C168.685 59.5789 168.597 59.6671 167.108 60.781C166.248 61.4316 164.891 62.3911 164.097 62.9094C162.498 63.957 159.641 65.6774 159.498 65.6774C159.388 65.6774 159.388 65.512 159.52 64.9606C159.752 64.0012 159.873 60.8912 159.752 59.1488C159.619 57.263 159.421 56.3367 158.649 53.9326C157.954 51.7931 157.689 50.2492 157.844 49.3008C158.053 48.0105 158.494 47.4481 159.432 47.2716C160.303 47.0952 160.711 47.1393 161.505 47.4922ZM88.2853 48.1649C87.7779 49.367 87.4471 51.6608 87.5574 53.1606C87.7228 55.267 88.1309 56.877 89.322 60.0531C90.7006 63.7255 91.0866 64.5084 92.3549 66.2178C92.7188 66.7141 93.0166 67.1331 93.0166 67.1662C93.0166 67.2655 92.1122 66.7692 91.1638 66.1516C88.969 64.7069 86.1788 62.3028 84.4362 60.3509C82.0099 57.638 81.3923 56.7006 80.4438 54.3075C80.1902 53.6899 79.9144 53.0393 79.8262 52.8739C79.6718 52.5651 79.6718 52.5651 80.2453 52.1901C81.6129 51.3189 83.962 50.0066 86.1236 48.8927C87.403 48.2421 88.4507 47.7017 88.4617 47.7017C88.4728 47.7017 88.3955 47.9113 88.2853 48.1649ZM123.246 48.0326C124.415 48.2862 125.529 48.7494 126.522 49.389C127.625 50.1169 128.198 50.6903 128.198 51.0763C128.198 51.5395 126.864 67.5963 126.82 67.6514C126.798 67.6735 126.566 67.5191 126.301 67.3096C125.574 66.7251 124.934 66.3832 123.842 66.0193C120.897 65.0488 116.762 65.3355 112.835 66.8023C112.185 67.0449 111.633 67.2324 111.611 67.2103C111.589 67.1883 111.865 63.6593 112.207 59.3694L112.846 51.5726L113.155 51.1755C113.651 50.5249 115.162 49.389 116.232 48.8597C118.46 47.7679 120.732 47.4922 123.246 48.0326ZM144.521 56.3587C143.859 60.9023 143.319 64.6408 143.319 64.6518C143.308 64.6739 143.021 64.6849 142.679 64.6849C140.826 64.6849 137.363 65.2473 135.257 65.8869C133.095 66.5376 130.713 67.5632 129.378 68.4013C129.147 68.5447 128.926 68.655 128.904 68.6329C128.871 68.5888 130.294 51.3079 130.338 51.2748C130.404 51.1976 145.591 47.9774 145.635 48.0215C145.679 48.0546 145.172 51.8041 144.521 56.3587ZM166.964 50.2713C169.655 51.7711 174.078 54.5501 174.078 54.7376C174.078 54.8589 170.637 58.0681 170.505 58.0681C170.483 58.0681 170.284 57.7593 170.052 57.3843C169.821 57.0094 168.939 55.9838 168.089 55.1015C166.402 53.3481 165.564 52.2894 165.056 51.2858C164.693 50.558 164.373 49.5655 164.373 49.1684C164.373 48.9148 164.373 48.9148 165.178 49.3118C165.608 49.5324 166.424 49.9625 166.964 50.2713ZM76.7161 56.0499C78.4586 59.7884 80.6092 65.3797 82.0209 69.8681C82.815 72.3825 83.7745 75.724 83.7194 75.7791C83.6201 75.8783 82.0099 74.1359 81.3813 73.2316C79.8593 71.037 78.9549 69.1512 77.8631 65.7987C76.694 62.2587 76.1316 59.7333 75.8669 56.855C75.7345 55.4324 75.7456 55.2339 75.9 55.0574C75.9882 54.9582 76.0875 54.8699 76.1095 54.8699C76.1316 54.8699 76.4073 55.3993 76.7161 56.0499ZM178.103 57.6159C179.802 58.9283 181.136 60.0641 181.136 60.1744C181.136 60.2296 180.96 60.5053 180.75 60.781C180.221 61.4757 179.46 63.0748 179.041 64.3541C178.853 64.9275 178.478 66.4494 178.214 67.7397C177.651 70.3643 177.365 71.2686 176.758 72.4266C175.424 74.9851 172.071 78.3707 168.122 81.1718C167.361 81.7122 166.545 82.2856 166.303 82.4621C166.06 82.6385 165.851 82.7378 165.828 82.6826C165.784 82.5503 167.02 78.3707 167.858 75.7901C170.097 68.9417 172.688 62.6447 175.6 56.9873L176.074 56.061L176.482 56.3698C176.703 56.5352 177.442 57.0976 178.103 57.6159ZM73.7604 56.9212C73.7935 57.0204 73.8266 57.2961 73.8266 57.5498C73.8266 58.829 74.5545 62.2146 75.4698 65.2694C76.7271 69.4159 77.8962 71.9413 79.7931 74.6212C80.907 76.1871 83.0025 78.1832 84.2046 78.8118C84.6127 79.0103 84.6127 79.0213 85.0097 80.6425C86.4765 86.7189 87.7228 93.6555 88.6051 100.57C89.0242 103.879 89.0242 103.779 88.5941 103.283C87.9875 102.566 86.7633 100.813 86.1347 99.732C84.9877 97.758 84.0612 95.3097 82.8701 91.097C82.3408 89.2223 81.9768 87.7666 80.3446 80.9843C78.5689 73.6507 77.3227 70.7724 74.9074 68.4785C73.5619 67.1993 71.9627 66.2729 70.1319 65.6884C68.5548 65.1922 67.7387 65.0709 65.8638 65.0709H64.1212L65.0366 64.1555C66.0844 63.0858 68.5658 60.8141 70.0768 59.5348C71.323 58.4871 73.5178 56.7557 73.617 56.7447C73.6611 56.7447 73.7273 56.8219 73.7604 56.9212ZM184.357 62.9645C186.386 64.8393 190.522 69.1954 190.864 69.8019C190.93 69.9122 190.72 69.9673 189.981 70.0114C186.11 70.2982 181.997 73.2316 178.589 78.1391C177.078 80.3116 175.975 82.3187 174.563 85.5058C174.166 86.3991 172.975 88.8914 171.927 91.0419C170.88 93.1924 169.666 95.8281 169.225 96.8868C167.317 101.485 165.762 104.606 164.792 105.775C163.909 106.845 163.06 107.253 161.704 107.253C160.976 107.253 160.954 107.242 160.954 106.977C160.954 106.095 162.222 98.3755 163.005 94.4606C163.612 91.4168 164.681 86.7851 164.858 86.4101C165.023 86.0572 166.336 84.9985 168.586 83.4215C172.887 80.4219 175.975 77.4884 177.927 74.577C179.085 72.8567 179.614 71.3789 180.364 67.7286C180.761 65.8428 181.236 64.2658 181.71 63.3064C182.085 62.5455 182.702 61.597 182.813 61.597C182.857 61.597 183.552 62.2146 184.357 62.9645ZM68.7644 67.475C70.6282 67.9602 72.2274 68.8204 73.4736 70.0225C75.6353 72.0847 76.7492 74.8748 78.6792 83.0466C80.7967 92.0454 82.1533 96.5559 83.5539 99.357C84.8663 101.971 86.3552 104.055 88.561 106.371L89.344 107.198L89.4212 108.246C89.6418 111.157 89.7962 113.374 89.7852 113.385C89.73 113.407 86.267 111.389 85.5942 110.936C82.1533 108.665 79.9806 106.25 78.1609 102.676C76.6168 99.6438 75.8669 97.2286 74.7199 91.5602C73.2972 84.5684 72.459 81.9658 70.8378 79.5727C69.0511 76.915 65.5329 74.3344 62.7316 73.6066C61.0442 73.1765 58.6289 73.364 57.0187 74.0587C56.7209 74.18 56.4563 74.2572 56.4232 74.2241C56.357 74.158 57.9231 72.0847 59.434 70.2651C61.6067 67.6514 62.864 67.078 66.2167 67.1662C67.3527 67.1883 67.9593 67.2655 68.7644 67.475ZM191.603 72.2391C192.496 72.4707 193.356 72.9559 193.808 73.4632C194.25 73.9705 196.544 77.1576 196.643 77.4002C196.687 77.5215 196.455 77.5436 195.408 77.4995C190.985 77.334 187.301 79.2198 184.93 82.8922C183.342 85.3404 182.184 88.5385 180.21 96.0045C179.129 100.074 178.523 101.772 177.166 104.551C175.335 108.301 173.549 110.639 171.31 112.205C169.711 113.33 167.406 114.278 165.145 114.752C164.284 114.929 160.391 115.524 160.094 115.524C160.038 115.524 160.016 115.359 160.038 115.16C160.204 113.341 160.524 110.198 160.579 109.812L160.645 109.348H161.56C162.796 109.348 163.512 109.194 164.428 108.753C165.376 108.29 166.27 107.43 167.075 106.216C168.056 104.728 169.832 101 171.321 97.3279C171.574 96.6882 172.622 94.4606 173.637 92.3653C174.663 90.2699 175.821 87.8107 176.229 86.9064C179.636 79.275 183.044 74.952 187.235 72.9449C188.901 72.1509 190.379 71.9083 191.603 72.2391ZM62.2574 75.6688C64.5734 76.2423 67.5732 78.503 69.1504 80.852C70.551 82.9583 71.301 85.3404 72.6685 92.0344C73.8817 98.0006 74.764 100.78 76.4293 103.945C78.1498 107.198 80.0799 109.481 82.9253 111.609C84.3701 112.69 84.9435 113.065 86.9287 114.201C87.7559 114.675 88.7595 115.259 89.1565 115.491L89.8734 115.932L89.9396 116.638C90.0719 117.983 90.1822 126.949 90.094 129.883L90.0168 132.838L89.708 132.651C88.6823 132.055 86.3221 129.607 84.1826 126.96C81.7893 123.972 80.2784 121.579 78.3042 117.619C75.0287 111.047 74.0251 107.805 72.448 98.6512C71.1576 91.1963 70.3635 88.1636 68.9739 85.3514C68.2019 83.8185 68.1798 83.7965 66.6799 82.2636C65.3785 80.9292 65.0477 80.6535 64.2867 80.2675C63.1066 79.661 62.2794 79.4625 60.967 79.4625C58.1988 79.4735 56.368 80.5542 54.2726 83.4215C53.0815 85.0316 52.6182 86.4542 52.4418 89.0679C52.3094 90.8654 52.3315 91.3617 52.6513 93.6886C52.7727 94.5047 52.9601 96.1699 53.0925 97.383C53.6219 102.566 54.0961 105.808 55.1328 111.499C56.5114 119.031 56.743 120.796 56.743 123.74C56.743 126.607 56.4232 128.736 55.2982 133.511C54.1843 138.242 52.6182 143.26 50.0596 150.318C48.2398 155.313 47.7766 156.912 47.6222 158.655L47.545 159.559L47.3465 159.173C46.9495 158.412 45.7253 155.368 44.9974 153.372C44.2254 151.233 42.8799 146.921 42.7806 146.215C42.7144 145.829 42.7365 145.785 43.0784 145.631C44.2364 145.101 47.0928 140.348 48.6479 136.367C50.4897 131.669 51.2838 128.195 51.5485 123.74C51.6918 121.501 51.6367 119.924 51.3169 116.903C50.9308 113.252 50.236 109.404 49.6625 107.838C48.9236 105.786 48.9016 105.698 48.7913 104C48.7361 103.073 48.5817 101.463 48.4604 100.405C47.9531 96.181 47.9751 92.5638 48.5376 89.6634C49.1111 86.6858 50.5118 83.5428 52.8057 80.1021C53.7101 78.7567 54.438 78.0619 56.0703 76.9922C58.276 75.5365 60.1399 75.1395 62.2574 75.6688ZM196.852 79.7382C197.338 79.8264 197.867 79.9036 198.021 79.9036C198.286 79.9036 198.429 80.0911 199.312 81.5798C200.79 84.1053 201.198 84.8331 202.334 87.1269C204.065 90.5897 206.061 95.2877 206.061 95.9053C206.061 96.3795 205.135 99.9636 204.528 101.794C204.231 102.699 203.37 105.136 202.609 107.198C198.882 117.311 198.043 120.95 197.933 127.456C197.856 131.835 198.099 134.658 198.893 138.584C199.764 142.874 200.911 145.884 202.918 149.215C204.054 151.112 204.617 151.895 205.587 152.942C206.028 153.427 206.392 153.891 206.392 153.979C206.392 154.199 205.289 157.056 204.44 159.03C203.139 162.04 200.437 167.356 200.205 167.356C200.15 167.356 200.106 166.981 200.106 166.529C200.106 164.709 199.665 161.489 198.672 156.162C198.308 154.222 197.768 151.189 197.47 149.435C197.161 147.671 196.643 144.848 196.312 143.149C195.132 137.117 194.933 135.551 194.845 131.79C194.801 129.574 194.834 128.526 195.077 125.394C195.65 117.851 195.617 118.105 196.577 114.09C197.437 110.484 198.319 106.029 199.301 100.361C199.61 98.6071 199.576 93.9312 199.246 91.8139C198.804 88.9907 198.374 87.7225 197.492 86.6527C197.018 86.0683 195.992 85.2963 195.121 84.8552C194.779 84.6787 194.261 84.2927 193.985 83.995C193.279 83.2451 192.706 82.9914 191.702 82.9914C189.309 83.0025 186.893 85.2853 184.566 89.7185C184.136 90.5346 183.783 91.1522 183.783 91.086C183.783 90.8213 185.03 87.3254 185.526 86.2116C187.202 82.4511 189.761 80.2565 193.136 79.683C193.985 79.5397 195.915 79.5727 196.852 79.7382ZM62.5 81.7673C63.8014 82.2195 65.1579 83.4436 66.4483 85.3073C68.0916 87.7004 68.8967 90.5236 70.4628 99.4783C71.4223 104.948 71.9296 107.264 72.8009 109.944C73.9148 113.418 76.0323 118.138 78.0726 121.711C81.3813 127.501 86.8074 133.776 89.6197 135.044C89.9065 135.176 89.9175 135.209 89.8624 135.86C89.8403 136.224 89.7411 137.602 89.6528 138.904C89.2558 144.407 88.4728 150.726 87.6015 155.39L87.3699 156.626L86.7523 157.111C85.2303 158.291 81.679 161.445 78.5138 164.433C73.2641 169.385 70.1319 171.844 67.485 173.102C65.191 174.182 63.8896 174.469 61.3641 174.469C59.1693 174.469 58.1437 174.27 56.8092 173.587C54.9122 172.638 54.7468 172.495 53.8314 171.105C52.9271 169.727 51.1845 166.838 50.7764 166.033C50.6331 165.757 50.4787 165.36 50.4346 165.15C50.3904 164.941 50.214 164.268 50.0485 163.662C49.7618 162.625 49.7397 162.426 49.7397 160.353C49.7287 158.28 49.7508 158.07 50.0485 156.934C50.214 156.262 50.6992 154.751 51.1294 153.571C54.9453 142.907 55.7945 140.271 57.107 134.967C58.3973 129.761 58.8274 126.96 58.8274 123.74C58.8274 120.564 58.5848 118.623 57.3386 111.885C56.0923 105.125 55.3975 100.118 54.9674 94.9568C54.9012 94.1628 54.8019 93.3357 54.7358 93.1041C54.3718 91.7367 54.4049 88.5385 54.8019 87.0277C55.221 85.4176 56.8643 83.1679 58.276 82.2746C59.412 81.5578 61.2427 81.3372 62.5 81.7673ZM192.298 85.2742C192.408 85.3735 192.496 85.5168 192.496 85.594C192.496 85.6712 192.617 85.8808 192.772 86.0572C193.18 86.5425 193.279 87.149 193.036 87.6342C192.926 87.8548 191.36 93.4901 189.562 100.151C185.669 114.554 185.89 113.727 185.338 115.8C181.048 132.022 177.387 145.884 177.089 147.053C176.659 148.752 176.317 149.424 175.346 150.395C173.273 152.49 170.03 153.317 167.295 152.468C165.277 151.828 164.737 149.733 166.159 148.112C167.924 146.105 170.659 147.153 170.659 149.821C170.659 150.174 170.725 150.439 170.88 150.626C171.155 150.968 171.773 151.189 172.247 151.112C172.744 151.034 175.346 149.733 175.81 149.325C176.295 148.906 176.438 148.2 176.284 146.877C175.644 141.23 169.424 138.705 163.303 141.605C162.189 142.124 161.593 142.51 160.491 143.381L159.752 143.976L159.696 143.392C159.597 142.499 159.41 138.639 159.41 137.404V136.29L161.097 135.705C164.726 134.437 166.071 133.489 169.214 129.993C171.751 127.17 172.016 126.85 173.041 125.306C175.004 122.362 176.493 119.472 178.015 115.69C178.964 113.352 179.383 111.962 180.331 108.19C181.291 104.287 181.6 103.228 182.482 100.592C184.302 95.1554 186.188 90.7772 187.754 88.4062C189.342 85.98 191.459 84.5133 192.298 85.2742ZM129.676 87.0277C132.533 87.5129 135.268 88.8583 137.374 90.8213C139.635 92.9056 141.256 96.0376 141.731 99.2137C141.896 100.294 141.896 102.346 141.675 125.405C141.543 139.168 141.4 152.203 141.367 154.365L141.289 158.313H139.26H137.231L137.297 155.413C137.374 151.917 137.992 108.565 138.036 103.448C138.069 99.4563 138.047 99.2247 137.341 97.5374C135.334 92.652 129.709 90.292 123.588 91.7587C117.975 93.1041 113.089 97.4712 111.313 102.732C111.016 103.636 110.96 103.923 110.982 104.772C111.005 105.819 110.056 151.961 109.935 155.953L109.869 158.28L107.883 158.357C106.792 158.401 105.876 158.412 105.843 158.39C105.821 158.357 105.931 144.793 106.097 128.25C106.372 99.6768 106.372 98.1219 106.196 97.5484C105.634 95.7398 104.321 94.1187 102.898 93.457C101.851 92.9718 100.417 92.7402 99.2037 92.8836C98.6854 92.9387 98.2553 92.9828 98.2442 92.9828C98.2332 92.9718 98.2001 92.2219 98.167 91.3066L98.0898 89.6413L98.939 89.5641C99.4023 89.5311 100.902 89.498 102.281 89.498H104.795L105.876 89.9501C106.472 90.1927 107.255 90.5456 107.619 90.7331C108.38 91.1191 110.795 92.9608 111.545 93.7327C111.81 94.0084 112.063 94.24 112.107 94.24C112.152 94.24 112.538 93.821 112.979 93.3026C115.945 89.7737 120.467 87.3806 125.165 86.8512C126.29 86.7299 128.408 86.8071 129.676 87.0277ZM196.742 89.884C197.216 91.7036 197.393 93.5453 197.393 96.3905C197.382 99.4122 197.426 99.0482 196.367 104.772C195.584 108.94 195.253 110.528 194.58 113.363C193.588 117.509 193.566 117.708 192.981 125.284C192.739 128.449 192.706 129.464 192.75 131.79C192.838 135.783 193.125 137.9 194.481 144.804C194.724 146.017 195.198 148.597 195.529 150.538C195.871 152.479 196.389 155.379 196.687 156.99C197.602 161.886 197.933 164.345 198.077 167.466C198.11 168.404 198.22 169.396 198.297 169.672C198.385 169.947 198.452 170.234 198.452 170.3C198.452 170.764 193.058 178.263 192.518 178.538C191.746 178.935 190.654 178.847 188.79 178.219C186.276 177.38 183.497 175.66 181.203 173.521C179.339 171.789 178.126 170.444 175.622 167.356C173.769 165.062 171.376 162.669 170.052 161.765C167.703 160.177 164.891 159.14 162.046 158.809C161.351 158.732 161.428 158.842 161.229 157.574L161.163 157.122L161.913 157.398C163.137 157.839 165.067 158.302 166.501 158.489C168.277 158.721 171.012 158.644 172.589 158.313C176.162 157.552 179.206 155.578 181.048 152.832C182.339 150.913 182.316 150.979 185.493 138.573C187.114 132.298 188.647 126.321 188.923 125.295C189.64 122.637 190.147 119.891 190.345 117.575C190.5 115.745 190.577 115.083 190.842 112.822C190.897 112.392 192.154 106.955 193.643 100.713C195.132 94.4826 196.356 89.2995 196.356 89.2002C196.356 88.8473 196.566 89.2112 196.742 89.884ZM46.4201 101.077C46.6848 103.195 46.7289 103.989 46.7399 106.536C46.7509 110.363 46.5083 112.458 45.6481 116.02C45.2069 117.84 44.7327 119.23 44.1592 120.387C43.3431 122.009 41.1263 125.527 40.3874 126.376L40.0013 126.817L39.9352 125.714C39.858 124.501 40.0013 119.649 40.1888 117.509C40.8836 109.415 42.6262 101.739 45.4496 94.2731L45.9789 92.8615L46.0451 95.7288C46.1003 97.8462 46.1995 99.2468 46.4201 101.077ZM208.808 104.507C211.3 114.256 211.995 124.755 210.848 135.099C210.749 135.948 210.638 136.676 210.594 136.72C210.561 136.764 210.407 136.224 210.274 135.507C209.866 133.478 209.183 131.625 207.352 127.655C206.414 125.626 205.422 123.442 205.146 122.803C203.701 119.417 203.04 116.12 203.293 113.616C203.547 111.146 204.253 109.393 206.282 106.128C206.878 105.18 207.572 104.022 207.826 103.559C208.08 103.096 208.311 102.743 208.333 102.765C208.355 102.787 208.576 103.57 208.808 104.507ZM177.982 108.918C177.343 111.477 176.615 113.671 175.666 115.91C174.1 119.605 172.126 123.145 170.328 125.471C169.192 126.949 166.082 130.368 165.178 131.14C164.329 131.857 163.137 132.651 162.52 132.915C161.913 133.169 159.487 134.051 159.388 134.051C159.266 134.051 159.277 129.464 159.421 125.582C159.531 122.295 159.796 117.741 159.862 117.686C159.884 117.675 161.064 117.498 162.476 117.3C166.534 116.737 168.244 116.252 170.659 115.017C173.758 113.429 175.953 111.179 178.015 107.496C178.225 107.11 178.423 106.823 178.445 106.845C178.478 106.867 178.269 107.805 177.982 108.918ZM48.8354 113.815C49.1001 115.734 49.4309 118.877 49.5081 120.321C49.5964 121.909 49.4199 124.975 49.1221 126.96C48.4714 131.416 46.4201 137.073 44.0158 141.054C43.0343 142.686 42.0637 143.932 42.0637 143.579C42.0637 143.546 41.8652 142.543 41.6226 141.352C40.9278 137.867 40.3763 133.886 40.1337 130.566L40.0565 129.563L40.4315 129.342C41.0711 128.967 42.4608 127.247 43.6739 125.339C45.6812 122.196 46.4532 120.696 47.0708 118.81C47.4678 117.619 48.1295 114.741 48.3611 113.285C48.4273 112.811 48.5266 112.469 48.5707 112.513C48.6258 112.558 48.7361 113.142 48.8354 113.815ZM188.206 115.226C188.305 116.671 188.107 118.7 187.588 121.369C187.081 124.049 180.783 148.685 180.353 149.744C179.383 152.049 177.508 154.056 175.214 155.214C174.387 155.633 173.163 156.041 172.071 156.284C170.957 156.526 168.288 156.615 166.942 156.438C164.615 156.151 160.888 154.982 160.788 154.508C160.733 154.255 160.259 150.163 160.071 148.31C159.917 146.811 159.939 146.756 161.163 145.609C163.038 143.844 165.056 142.863 167.45 142.543C168.453 142.41 169.821 142.521 170.637 142.807C172.666 143.524 173.913 144.98 174.188 146.965C174.254 147.395 174.277 147.792 174.232 147.847C174.166 147.969 172.92 148.608 172.766 148.608C172.71 148.608 172.589 148.344 172.479 148.024C171.905 146.259 170.416 145.101 168.564 144.991C165.244 144.804 162.597 148.068 163.446 151.31C163.656 152.148 163.998 152.722 164.648 153.361C165.74 154.442 167.064 154.828 169.611 154.817C170.957 154.817 171.431 154.773 172.148 154.574C173.791 154.133 175.578 153.141 176.659 152.071C178.181 150.571 178.864 149.237 179.35 146.899C179.57 145.862 187.059 117.454 187.665 115.381C187.853 114.73 188.04 114.234 188.073 114.267C188.107 114.3 188.173 114.73 188.206 115.226ZM202.521 121.865C203.062 123.321 203.657 124.71 204.903 127.379C207.495 132.926 207.804 133.787 208.322 136.566C208.477 137.393 208.675 138.451 208.763 138.904C209.16 140.955 209.425 142.752 209.403 143.315C209.381 144.241 207.561 151.09 207.264 151.42C206.855 151.862 203.745 146.844 202.532 143.756C201.418 140.966 200.415 136.158 200.095 132.143C199.929 129.993 200.029 124.744 200.271 123.023C200.448 121.744 200.988 118.932 201.22 118.116L201.341 117.675L201.76 119.329C201.992 120.233 202.334 121.38 202.521 121.865ZM163.49 161.18C165.498 161.665 167.152 162.36 168.729 163.408C170.008 164.257 172.302 166.595 174.53 169.341C176.681 171.999 179.195 174.645 180.883 176.035C183.783 178.428 187.18 180.193 189.849 180.711C190.246 180.777 190.588 180.854 190.61 180.876C190.676 180.931 190.169 181.505 188.338 183.468C186.739 185.199 183.75 188.078 182.118 189.456L181.401 190.063L180.717 189.864C179.46 189.478 178.258 188.574 177.111 187.162C175.776 185.519 175.214 184.273 174.144 180.567C173.306 177.689 173.074 177.005 172.38 175.296C171.398 172.914 169.81 170.168 168.354 168.348C166.953 166.595 164.836 164.698 163.005 163.551L162.2 163.055L162.013 162.14C161.913 161.643 161.836 161.169 161.836 161.092C161.836 160.893 162.41 160.927 163.49 161.18ZM85.7486 163.948C83.3003 173.587 79.9475 181.538 75.8889 187.339C74.9294 188.706 72.6575 191.507 72.5031 191.507C72.3708 191.507 70.3084 189.809 68.8085 188.475C67.3086 187.151 64.4521 184.383 64.4521 184.262C64.4521 184.218 64.783 184.052 65.191 183.898C66.7351 183.313 70.154 181.251 72.0068 179.773C73.0215 178.957 74.6868 177.314 75.4809 176.344C76.4735 175.12 77.1572 174.116 79.0432 171.105C81.1386 167.753 82.429 165.845 83.6752 164.235C84.8002 162.801 86.3221 161.114 86.3663 161.257C86.3883 161.313 86.1126 162.526 85.7486 163.948ZM163.744 166.683C166.148 168.646 167.946 171.006 169.556 174.248C170.549 176.256 171.089 177.623 171.751 179.928C173.152 184.703 173.802 186.269 175.071 187.967C176.251 189.522 178.048 191.11 179.085 191.507C179.361 191.607 179.372 191.64 179.25 191.805C179.107 191.97 176.493 193.944 175.214 194.838C174.519 195.334 174.751 195.533 173.063 192.886C169.236 186.864 165.575 177.601 163.38 168.404C162.807 165.977 162.818 166.033 162.895 166.033C162.928 166.033 163.314 166.319 163.744 166.683ZM77.466 169.661C76.4293 171.315 75.3596 173.002 75.0728 173.399C73.8266 175.175 72.2825 176.84 70.7385 178.086C68.632 179.784 64.9043 181.913 63.3823 182.288L62.6875 182.464L62.2022 181.935C61.2979 180.964 59.9855 179.432 59.1032 178.329C57.7025 176.586 57.4709 176.278 57.526 176.222C57.5591 176.2 57.9451 176.256 58.3973 176.366C59.6877 176.664 63.1617 176.63 64.6396 176.311C68.6872 175.439 72.2715 173.113 78.5689 167.268C78.966 166.904 79.2968 166.617 79.3189 166.639C79.3299 166.65 78.5028 168.018 77.466 169.661ZM123.666 179.84C123.544 180.159 123.291 180.689 123.103 181.02L122.761 181.604L122.397 180.821C122.199 180.391 121.934 179.895 121.813 179.718C121.68 179.542 121.581 179.365 121.581 179.332C121.581 179.299 122.099 179.266 122.739 179.266H123.897L123.666 179.84ZM120.423 181.582C120.941 182.63 121.063 183.699 121.085 187.206C121.118 191.474 121.338 193.691 121.857 194.705C122.055 195.091 122.088 195.257 121.989 195.356C121.78 195.566 121.724 195.499 121.383 194.672C120.842 193.393 120.478 192.235 120.026 190.349C119.794 189.379 119.475 188.111 119.32 187.537L119.044 186.49L119.111 182.939L119.188 179.376L119.684 180.226C119.96 180.7 120.291 181.306 120.423 181.582ZM129.511 179.553C129.643 179.685 128.187 182.156 127.537 182.894L127.217 183.269L127.084 182.95C126.897 182.442 126.676 181.273 126.588 180.27L126.511 179.343L127.989 179.421C128.794 179.465 129.478 179.52 129.511 179.553ZM117.037 183.291C117.004 187.537 117.059 187.317 116.276 186.015C115.559 184.824 114.865 182.464 114.578 180.181L114.501 179.608L115.096 179.564C115.416 179.542 116.001 179.52 116.376 179.509L117.081 179.487L117.037 183.291ZM133.018 179.906C133.095 179.95 132.996 180.093 132.709 180.292L132.279 180.601V180.215C132.279 179.851 132.312 179.818 132.588 179.818C132.753 179.818 132.941 179.862 133.018 179.906ZM112.471 180.226C112.504 180.402 112.56 180.755 112.593 181.031C112.626 181.306 112.736 181.935 112.835 182.442C112.924 182.95 112.979 183.38 112.957 183.402C112.924 183.435 112.538 183.336 112.085 183.181C109.935 182.442 107.012 181.803 105.766 181.803C104.288 181.803 103.714 182.178 103.714 183.137C103.714 183.545 103.77 183.655 104.167 183.997C104.42 184.218 104.928 184.692 105.303 185.056L105.975 185.718L105.259 185.795C103.384 185.993 101.299 186.081 99.7772 186.026L98.1009 185.96L97.7038 186.357C97.384 186.677 97.3178 186.82 97.3178 187.195C97.3178 187.813 97.5163 188.166 98.2332 188.827C99.0162 189.544 100.196 190.107 101.95 190.603C102.744 190.824 103.34 191.033 103.295 191.077C103.251 191.11 102.788 191.276 102.259 191.441C101.288 191.739 98.2442 193.217 96.8215 194.077C95.9061 194.628 95.5863 195.102 95.7076 195.731C95.7738 196.062 95.9172 196.238 96.5568 196.735C97.8472 197.749 99.4243 198.356 101.233 198.543L102.005 198.62L100.902 199.304C99.689 200.043 99.5015 200.219 98.9942 201.08C98.3104 202.204 98.2663 203.109 98.8618 203.539C99.1045 203.715 101.729 204.377 103.748 204.763C104.089 204.84 104.376 204.917 104.376 204.95C104.365 205.05 101.707 206.55 101.476 206.594C101.2 206.649 96.4024 205.017 94.0092 204.046C91.5387 203.065 89.2337 202.017 86.9839 200.859C85.506 200.109 82.5724 198.51 82.44 198.389C82.3408 198.301 83.587 197.11 84.9546 195.963C85.6935 195.334 87.414 194.044 88.7595 193.095C91.6821 191.011 92.5644 190.305 93.4136 189.368C94.5827 188.089 95.2334 186.699 95.4098 185.089L95.4981 184.284L96.0385 184.03C96.9759 183.578 101.387 182.156 103.604 181.593C106.24 180.92 111.093 179.983 112.118 179.939C112.35 179.928 112.416 179.983 112.471 180.226ZM138.698 180.821C140.815 181.24 143.429 181.891 145.569 182.519C148.613 183.424 151.546 184.493 151.822 184.802C151.932 184.924 152.175 185.497 152.362 186.081C153.101 188.331 152.748 190.658 151.392 192.522C150.3 194.033 147.223 195.72 143.528 196.834C142.834 197.054 142.017 197.33 141.709 197.462C140.738 197.893 140.661 197.915 140.661 197.76C140.661 197.529 142.867 194.683 143.76 193.757C144.532 192.963 144.631 192.809 144.631 192.456C144.631 191.904 144.466 191.629 144.014 191.441C143.65 191.287 143.528 191.309 142.15 191.662C139.646 192.323 138.19 192.974 137.121 193.911C136.79 194.198 136.304 194.606 136.029 194.816C135.753 195.025 135.268 195.433 134.948 195.731C134.628 196.029 134.341 196.249 134.308 196.216C134.275 196.194 134.496 195.775 134.794 195.301C135.676 193.878 135.885 193.393 136.47 191.331C136.779 190.239 137.209 188.938 137.418 188.419C138.279 186.346 138.356 185.993 138.069 185.442C137.694 184.725 136.911 184.703 135.213 185.398C135.014 185.475 135.003 185.431 135.058 184.549C135.102 183.931 135.224 183.302 135.444 182.674C135.819 181.571 136.503 180.479 136.812 180.479C136.922 180.479 137.771 180.634 138.698 180.821ZM125.408 185.607C125.463 186.765 125.441 186.887 125.077 188.089C124.625 189.544 124.162 191.353 123.974 192.379C123.842 193.084 123.643 193.349 123.522 192.974C123.379 192.489 123.202 190.096 123.202 188.53C123.202 186.975 123.235 186.71 123.544 185.519C123.732 184.802 124.074 183.81 124.305 183.324L124.724 182.431L125.033 183.413C125.287 184.163 125.364 184.67 125.408 185.607ZM132.952 184.516C132.886 185.243 132.83 186.445 132.83 187.206V188.574L132.047 189.743C130.978 191.309 130.945 191.342 131.187 190.449C131.308 190.03 131.65 188.486 131.948 187.019C132.455 184.593 132.886 183.027 133.007 183.159C133.04 183.192 133.007 183.799 132.952 184.516ZM109.615 184.637C112.835 185.508 113.85 186.159 114.931 188.056C115.846 189.655 115.835 189.599 115.162 189.114C113.751 188.078 111.865 187.129 109.99 186.501C109.339 186.28 108.744 186.104 108.655 186.104C108.567 186.104 108.38 185.85 108.225 185.53C108.082 185.221 107.817 184.769 107.641 184.527L107.332 184.085L107.751 184.163C107.994 184.207 108.832 184.416 109.615 184.637ZM129.434 186.986C129.555 188.331 129.555 188.397 129.268 189.5C128.904 190.901 128.551 191.662 127.978 192.29C127.47 192.853 127.504 192.919 127.526 191.121C127.559 189.335 128.187 186.743 128.926 185.321L129.114 184.946L129.213 185.276C129.257 185.453 129.356 186.225 129.434 186.986ZM93.1931 185.574C93.1489 185.773 92.9725 186.258 92.785 186.655C92.2777 187.747 90.9983 188.916 87.9434 191.088C84.6899 193.404 83.3003 194.507 81.7342 196.018L80.499 197.209L79.5946 196.635C78.2932 195.808 78.3263 195.841 78.5138 195.488C78.7344 195.036 80.918 192.996 82.5834 191.662C84.1384 190.404 86.5868 188.717 88.2853 187.725C89.3881 187.074 93.0056 185.232 93.171 185.221C93.2261 185.221 93.2372 185.387 93.1931 185.574ZM156.851 186.975C159.112 188.122 161.395 189.434 163.126 190.603C164.24 191.353 164.119 191.143 164.494 193.051C164.704 194.11 164.67 196.988 164.439 198.069C163.976 200.264 163.259 200.892 160.645 201.433C158.891 201.785 156.675 201.907 153.399 201.841C150.179 201.763 148.381 201.863 146.859 202.193C145.591 202.469 143.087 203.296 141.4 203.991L140.054 204.542L138.621 204.079C137.837 203.826 137.077 203.583 136.933 203.539C136.713 203.484 136.889 203.285 138.433 201.885C140.109 200.363 140.22 200.275 141.058 199.999C141.532 199.833 142.128 199.602 142.37 199.481C142.613 199.359 143.264 199.117 143.804 198.962C147.521 197.848 150.664 196.271 152.23 194.716C153.675 193.294 154.535 191.507 154.789 189.368C154.91 188.386 154.833 186.986 154.601 186.126C154.557 185.993 154.568 185.883 154.601 185.883C154.645 185.883 155.66 186.379 156.851 186.975ZM108.313 188.188C110.056 188.64 111.942 189.478 113.409 190.46C114.236 191.011 115.129 191.783 114.798 191.662C114.677 191.618 114.192 191.441 113.707 191.265C112.571 190.857 111.269 190.636 109.505 190.559C108.082 190.493 108.06 190.493 107.078 190.007C106.439 189.688 105.49 189.368 104.42 189.081C101.707 188.386 101.421 188.287 101.674 188.188C101.795 188.144 102.27 188.1 102.722 188.089C103.174 188.078 103.869 188.022 104.266 187.978C105.446 187.835 107.31 187.923 108.313 188.188ZM132.93 193.691C132.522 194.75 131.717 195.919 131.143 196.316C130.724 196.591 129.632 197.065 129.632 196.955C129.632 196.922 129.941 196.492 130.327 196.007C130.702 195.51 131.231 194.75 131.507 194.308C131.783 193.867 132.279 193.117 132.61 192.643L133.216 191.783L133.25 192.268C133.272 192.621 133.183 193.029 132.93 193.691ZM111.71 192.875C113.243 193.217 113.53 193.36 114.357 194.198C114.909 194.75 115.284 195.257 115.615 195.896C115.868 196.404 116.067 196.845 116.034 196.867C116.001 196.9 115.692 196.845 115.339 196.757C113.056 196.172 109.968 196.073 105.402 196.404C103.229 196.569 102.545 196.58 101.685 196.481C100.538 196.349 99.1265 195.941 98.542 195.577L98.167 195.345L99.2037 194.794C99.7772 194.485 100.582 194.088 101.001 193.911C101.807 193.559 104.795 192.897 106.295 192.72C107.564 192.577 110.773 192.676 111.71 192.875ZM168.486 194.761C170.383 196.492 171.244 197.407 171.078 197.54C170.538 197.959 166.038 200.484 165.961 200.418C165.939 200.396 166.016 200.109 166.137 199.8C166.545 198.72 166.733 197.319 166.733 195.235V193.283L167.042 193.503C167.207 193.625 167.858 194.187 168.486 194.761ZM140.33 194.529C140.33 194.562 140.021 194.992 139.635 195.499C139.26 196.007 138.676 196.878 138.345 197.451C138.014 198.025 137.418 198.83 137.032 199.249C135.952 200.418 134.33 201.719 133.624 201.984C132.819 202.282 131.871 202.381 131.209 202.216C130.57 202.05 128.86 201.267 128.86 201.135C128.86 200.881 129.742 200.627 130.845 200.55C132.213 200.462 132.841 200.23 134.352 199.293C135.014 198.885 135.499 198.488 135.764 198.146C136.139 197.65 138.025 195.852 138.731 195.312C139.315 194.871 140.33 194.375 140.33 194.529ZM174.299 195.411C174.299 195.433 174.21 195.521 174.111 195.599C173.935 195.742 173.924 195.731 174.067 195.555C174.21 195.378 174.299 195.323 174.299 195.411ZM125.871 197.87C125.684 198.345 125.463 198.808 125.375 198.896C125.243 199.028 125.221 198.984 125.221 198.51C125.221 198.201 125.187 197.848 125.154 197.716C125.099 197.496 125.154 197.429 125.562 197.242C125.827 197.121 126.081 197.021 126.125 197.021C126.158 197.021 126.048 197.407 125.871 197.87ZM111.71 199.117C112.813 199.249 113.971 199.536 113.971 199.69C113.971 199.833 112.56 200.716 111.357 201.322C110.045 201.973 109.03 202.359 107.861 202.657C107.365 202.778 106.814 202.932 106.626 202.999C106.229 203.142 105.578 203.043 103.053 202.469C100.649 201.918 100.836 202.017 101.343 201.576C102.534 200.539 105.931 199.447 108.909 199.128C110.221 198.995 110.585 198.995 111.71 199.117ZM122.342 202.006C121.912 202.855 120.765 204.399 120.655 204.289C120.622 204.256 120.666 203.947 120.743 203.605C120.875 203.021 120.963 202.888 121.702 202.216C122.155 201.796 122.53 201.477 122.552 201.488C122.574 201.51 122.474 201.741 122.342 202.006ZM127.062 202.491C127.272 202.646 127.768 202.965 128.154 203.197L128.871 203.616L127.625 204.223C126.886 204.587 126.07 205.105 125.618 205.48C125.121 205.888 124.879 206.042 124.923 205.899C125.099 205.447 126.599 202.204 126.643 202.204C126.665 202.204 126.864 202.337 127.062 202.491ZM158.483 203.936C158.439 203.991 155.726 205.017 154.447 205.469C152.418 206.197 148.999 207.2 146.649 207.785L144.587 208.292L144.367 207.972C144.245 207.807 143.76 207.266 143.286 206.792C142.811 206.307 142.459 205.877 142.503 205.833C142.679 205.678 145.469 204.719 146.683 204.41C147.377 204.234 148.403 204.046 148.966 203.991C149.815 203.925 158.549 203.87 158.483 203.936ZM118.272 205.017C118.195 205.414 118.096 205.767 118.041 205.789C117.997 205.822 117.666 205.711 117.313 205.524C116.96 205.347 116.464 205.149 116.21 205.072C115.945 204.995 115.736 204.895 115.736 204.851C115.736 204.807 116.012 204.73 116.342 204.686C116.673 204.653 117.247 204.531 117.633 204.421C118.019 204.322 118.35 204.245 118.372 204.256C118.394 204.278 118.35 204.62 118.272 205.017ZM135.003 205.281C136.029 205.48 137.352 205.822 137.352 205.888C137.352 205.91 137.021 206.141 136.613 206.395C134.485 207.763 131.75 209.593 131.507 209.825C131.286 210.045 131.066 210.101 130.349 210.167C129.257 210.255 124.007 210.277 124.007 210.189C124.007 210.067 124.658 209.196 125.066 208.755C125.618 208.193 127.239 206.836 127.823 206.472C129.831 205.226 132.455 204.785 135.003 205.281ZM110.685 205.888C113.905 206.439 116.089 207.112 117.313 207.961C117.677 208.204 118.25 208.501 118.581 208.612C119.419 208.899 119.805 208.766 120.236 208.071C120.412 207.785 120.765 207.333 121.008 207.057L121.46 206.561L121.471 207.84C121.471 208.546 121.504 209.262 121.537 209.439C121.57 209.626 121.537 209.847 121.449 209.957C121.294 210.156 121.217 210.156 119.144 209.979C115.471 209.67 112.096 209.185 108.677 208.479C107.012 208.127 104.464 207.509 104.387 207.432C104.321 207.366 106.538 206.329 107.541 205.954C108.6 205.557 108.722 205.557 110.685 205.888ZM140.727 207.377C141.554 207.917 142.304 208.678 142.084 208.755C141.521 208.965 136.194 209.737 135.731 209.681C135.466 209.648 135.61 209.538 136.746 208.799C137.948 208.027 139.845 206.958 140.01 206.947C140.043 206.947 140.363 207.134 140.727 207.377Z" fill="black"/>
<path d="M62.4228 82.1092C62.0478 82.2305 61.728 82.5062 61.5184 82.9033C61.3971 83.1459 61.375 83.6642 61.4192 85.55C61.5074 89.2995 61.7941 95.3429 61.9155 96.2362C61.9706 96.6773 62.0699 97.4713 62.125 97.9896C62.1801 98.5079 62.3787 99.7651 62.5551 100.802C62.7426 101.827 63.0735 103.89 63.294 105.378C64.43 113.109 64.8491 115.392 66.1064 120.928C66.4593 122.472 66.8563 124.314 66.9777 125.008C67.7386 129.298 67.8379 133.665 67.2203 135.816C66.8674 137.062 65.8968 139.422 64.6396 142.102C63.9999 143.48 63.0955 146.182 62.8088 147.561C62.0699 151.134 62.3125 154.144 63.5698 156.714C65.6873 161.07 70.4627 162.89 76.0874 161.5C77.5873 161.125 78.6461 160.739 78.9328 160.463C79.0762 160.309 79.4181 160.111 79.6828 160.022C80.8188 159.614 81.8113 158.732 82.2966 157.662C82.5172 157.199 82.5944 156.813 82.6275 156.107L82.6716 155.17L78.8556 141.495C76.7491 133.974 74.8853 127.324 74.7088 126.718C74.5324 126.111 73.5949 122.538 72.6244 118.777C70.562 110.76 70.3745 110.043 69.1944 105.544C68.1246 101.452 66.8012 96.1148 64.9373 88.2849C63.7242 83.1679 63.5257 82.4621 63.283 82.2416C62.9852 81.9769 62.908 81.9659 62.4228 82.1092ZM64.8381 99.5887C65.0586 100.625 65.4777 102.368 65.7755 103.482C66.7019 106.933 67.6504 111.631 68.5437 117.123C68.6761 117.972 69.0731 119.891 69.426 121.38C70.3083 125.13 71.4553 130.831 71.7862 133.103C72.3597 137.117 72.4038 139.356 71.9296 140.624C71.709 141.197 71.6869 141.484 71.6869 143.039C71.6869 144.583 71.72 144.969 71.9957 146.116C72.8119 149.634 74.7419 154.012 76.9807 157.464C77.3667 158.059 77.6866 158.589 77.6866 158.644C77.6866 158.92 75.7896 159.504 74.0581 159.747C72.9552 159.912 71.0693 159.835 70.1319 159.592C65.7424 158.434 63.647 154.012 64.794 148.333C65.1469 146.59 66.0292 144.109 67.2423 141.484C68.1246 139.554 69.04 137.216 69.3047 136.202C69.426 135.717 69.5804 134.702 69.6466 133.941C69.8782 131.36 69.5253 126.299 68.9628 123.961C67.5511 118.149 66.6909 113.76 65.7865 107.749C65.4116 105.323 64.9373 102.291 64.7278 101C64.3859 98.949 64.2425 97.5264 64.3859 97.6698C64.419 97.6919 64.6175 98.5631 64.8381 99.5887ZM77.1241 143.16C79.396 151.277 80.5541 155.589 80.5541 155.931C80.5541 156.482 80.2783 157.133 79.9034 157.475C79.771 157.596 79.6497 157.662 79.6276 157.64C79.6166 157.618 79.3519 157.221 79.0431 156.769C76.6278 153.141 74.5213 148.322 73.8927 144.98C73.639 143.679 73.6611 142.146 73.9258 141.539C74.0471 141.253 74.2015 140.514 74.2787 139.753C74.4441 138.198 74.3008 135.75 73.8817 132.86C73.5949 130.919 73.5839 130.787 73.6501 130.864C73.6721 130.886 75.2382 136.422 77.1241 143.16Z" fill="black"/>
<path d="M188.559 40.9966C188.272 41.3164 185.118 45.1652 181.721 49.3558C181.159 50.0506 180.695 50.6682 180.695 50.7454C180.695 50.9329 182.802 52.7745 183.022 52.7745C183.122 52.7745 183.596 52.2893 184.081 51.6938C184.555 51.1093 186.43 48.8155 188.239 46.6099C190.93 43.3345 191.503 42.5736 191.382 42.4744C189.827 41.2833 188.967 40.6437 188.934 40.6437C188.923 40.6437 188.746 40.8091 188.559 40.9966Z" fill="black"/>
<path d="M60.6361 42.4745C59.2355 43.6103 59.048 43.7868 59.048 43.9743C59.048 44.0846 59.5994 44.8786 60.2832 45.7498C60.967 46.61 62.1581 48.1318 62.9412 49.1244C64.1653 50.6683 64.3859 51.0102 64.43 51.4072C64.5514 52.521 63.5808 53.4363 62.2794 53.4363C61.8052 53.4363 61.6287 53.3812 61.4412 53.1827C61.3089 53.0503 60.0296 51.4954 58.6179 49.7419C57.1952 47.9774 55.993 46.4997 55.9379 46.4446C55.8386 46.3122 55.5078 46.5438 54.1733 47.6797C53.6329 48.1318 53.2028 48.573 53.2028 48.6612C53.2028 48.7935 55.8717 52.0137 58.8936 55.5427C59.7428 56.5242 59.831 56.6014 60.3825 56.7227C61.9596 57.0866 63.2169 56.9432 64.6616 56.2374C66.9336 55.1126 68.4445 52.2894 67.871 50.2382C67.7497 49.8191 61.6839 42.0444 61.4302 41.9892C61.342 41.9672 60.9891 42.1877 60.6361 42.4745Z" fill="black"/>
<path d="M192 45.7057C191.272 46.4666 189.342 48.5068 187.698 50.2161C185.835 52.1681 184.71 53.4253 184.688 53.5907C184.644 53.9657 190.356 59.3804 190.809 59.4025C191.856 59.4576 193.5 59.0606 194.691 58.4541C197.525 57.0315 199.477 53.9877 199.301 51.2859C199.19 49.6758 199.179 49.6647 196.279 46.8195C194.856 45.43 193.61 44.2831 193.511 44.2941C193.411 44.2941 192.728 44.9337 192 45.7057ZM194.68 49.7419C195.948 50.8447 196.113 51.2638 195.716 52.3115C195.099 53.9105 192.838 56.0831 191.779 56.0831C191.636 56.0831 191.051 55.653 190.323 55.0133L189.099 53.9436L191.095 51.8593C192.198 50.7124 193.246 49.5986 193.422 49.389C193.588 49.1905 193.775 49.0251 193.83 49.0472C193.875 49.0692 194.261 49.378 194.68 49.7419Z" fill="black"/>
<path d="M49.7508 52.6203C49.5413 52.6865 49.4751 52.7526 46.1665 56.3367C44.8981 57.7263 43.8284 58.9504 43.7953 59.0717C43.7512 59.2481 44.6224 60.0532 48.5487 63.4167C51.1956 65.6885 53.4565 67.5522 53.5557 67.5522C53.7763 67.5522 55.6291 65.5782 55.6291 65.3466C55.6291 65.2474 54.8351 64.4534 53.8756 63.5822L52.122 61.9831L52.5742 61.5089C53.1146 60.9575 53.0043 60.9575 56.5114 61.2552C57.9011 61.3765 58.9378 61.4207 59.0039 61.3655C59.0701 61.3104 59.5664 60.6928 60.0958 59.987C60.9119 58.9063 61.0442 58.6857 60.9119 58.5644C60.8126 58.4762 59.6877 58.2777 57.868 58.0571L54.9895 57.6932L55.0446 56.6896C55.1328 55.245 54.9233 54.6053 54.1072 53.7672C53.269 52.918 52.5631 52.6534 51.0522 52.5982C50.4456 52.5872 49.8611 52.5872 49.7508 52.6203ZM51.5595 56.2926C51.9124 56.6565 51.9566 56.9764 51.7139 57.4395C51.5264 57.7924 49.9052 59.7223 49.7839 59.7223C49.7398 59.7223 49.3868 59.4356 48.9898 59.0937L48.2729 58.4541L49.1663 57.3954C50.4015 55.9177 50.9309 55.6751 51.5595 56.2926Z" fill="black"/>
<path d="M202.852 54.4067C202.587 54.6493 200.437 56.491 198.065 58.5091C195.705 60.5273 193.676 62.2587 193.566 62.3579C193.433 62.4902 193.4 62.6116 193.455 62.777C193.5 62.9093 194.911 64.6517 196.577 66.6588C199.102 69.7026 199.643 70.2981 199.819 70.243C200.095 70.1547 202.113 68.4233 202.069 68.3131C202.047 68.2689 201.087 67.1441 199.918 65.8097L197.801 63.3835L198.705 62.6005C199.19 62.1704 199.632 61.8286 199.676 61.8396C199.72 61.8617 200.657 62.8762 201.771 64.1114C202.874 65.3355 203.822 66.328 203.867 66.317C203.922 66.2949 204.374 65.931 204.892 65.5119C205.554 64.9716 205.83 64.6628 205.83 64.4863C205.841 64.3209 205.311 63.6151 204.22 62.3359C203.337 61.2882 202.488 60.3067 202.345 60.1523L202.069 59.8545L202.753 59.3031L203.448 58.7517L205.488 61.0787C206.602 62.3689 207.605 63.4276 207.705 63.4497C207.881 63.4828 209.668 62.0822 209.833 61.7734C209.932 61.608 209.723 61.3433 205.102 55.8734C204.264 54.8699 203.525 54.0428 203.459 54.0207C203.381 53.9987 203.117 54.1751 202.852 54.4067Z" fill="black"/>
<path d="M40.7072 63.141C40.2439 63.8026 39.8359 64.4092 39.8028 64.4864C39.7807 64.5746 40.5197 65.1591 41.7328 65.9972L43.707 67.3757L43.4643 67.7066C43.321 67.894 42.8247 68.5778 42.3504 69.2284C41.8762 69.8901 41.4461 70.4195 41.3909 70.4195C41.3358 70.4195 40.5969 69.9232 39.7587 69.3167C37.9831 68.0484 37.7404 67.9271 37.5198 68.1918C37.211 68.5557 35.7442 70.7503 35.7883 70.7834C35.8104 70.8054 36.9463 71.5884 38.3139 72.5148C39.6815 73.4522 42.0527 75.0733 43.5857 76.121C45.1187 77.1686 46.4421 78.0288 46.5414 78.0288C46.6737 78.0288 48.3942 75.5696 48.4052 75.36C48.4052 75.3269 47.556 74.6983 46.5193 73.9815C45.4826 73.2537 44.5121 72.5699 44.3577 72.4486L44.0709 72.2391L45.1297 70.6952C45.7032 69.846 46.1884 69.1402 46.1995 69.1182C46.2105 69.1071 47.2031 69.7468 48.4052 70.5518L50.5779 72.0185L50.8205 71.7097C50.9418 71.5443 51.3609 70.9157 51.7359 70.3312L52.4087 69.2615L52.0668 68.9858C51.1404 68.2469 41.8872 61.9279 41.7439 61.9279C41.6446 61.9279 41.1814 62.4793 40.7072 63.141Z" fill="black"/>
<path d="M206.006 67.883C203.039 69.7578 200.558 71.3569 200.503 71.4451C200.426 71.5664 200.613 71.9083 201.198 72.7354C201.639 73.3529 202.069 73.8823 202.135 73.9043C202.212 73.9374 203.425 73.2868 204.837 72.4707C206.249 71.6436 207.484 70.9268 207.605 70.8606C207.738 70.7944 207.241 71.9193 206.15 74.1911C204.639 77.323 204.506 77.6429 204.628 77.9075C204.804 78.3156 206.061 80.3337 206.172 80.3999C206.249 80.444 209.271 78.6023 215.8 74.5109C216.627 73.9926 217.3 73.5073 217.289 73.4522C217.222 73.2427 215.866 70.7503 215.778 70.7062C215.7 70.6511 211.653 72.9008 210.296 73.7389L209.899 73.9815L210.087 73.6066C210.197 73.3971 210.991 71.8531 211.862 70.1658C212.734 68.4896 213.451 67.0118 213.451 66.8905C213.451 66.6038 211.796 64.4644 211.576 64.4754C211.487 64.4754 208.984 66.0083 206.006 67.883Z" fill="black"/>
<path d="M32.0275 77.8744C30.9026 80.2233 29.9762 82.2194 29.9541 82.3187C29.9321 82.451 31.2665 83.1458 35.5788 85.219C38.6999 86.7299 41.3027 87.954 41.3689 87.954C41.4792 87.954 45.4054 80.3998 45.7032 79.6278C45.8025 79.3631 45.7473 79.308 44.6886 78.6243C43.7732 78.0287 43.5526 77.9295 43.4313 78.0508C43.3541 78.128 42.6372 79.4293 41.8321 80.9512C41.027 82.462 40.3653 83.7192 40.3432 83.7413C40.3212 83.7744 38.3139 82.7929 38.2036 82.6936C38.1816 82.6716 38.722 81.5136 39.4168 80.1351C40.1116 78.7235 40.641 77.5435 40.5969 77.4553C40.5197 77.2347 38.347 76.1209 38.1485 76.1981C38.0603 76.2312 37.4206 77.4222 36.7258 78.8448L35.4575 81.4474L34.6965 81.0835L33.9465 80.7306L34.873 78.8007C35.3803 77.742 36.0199 76.4076 36.2957 75.8562C36.5604 75.2938 36.7589 74.7865 36.7258 74.7314C36.6596 74.6211 34.3325 73.6175 34.1561 73.6175C34.1009 73.6175 33.1414 75.5364 32.0275 77.8744Z" fill="black"/>
<path d="M215.017 78.139C213.142 78.4037 211.079 79.4514 209.899 80.7637C208.94 81.8334 208.377 83.2891 208.377 84.7228C208.377 86.9725 209.723 89.2332 211.631 90.1706C212.348 90.5235 212.48 90.5456 213.682 90.5897C215.546 90.6448 215.48 90.7 215.403 88.9355C215.37 88.1525 215.315 87.4688 215.27 87.4026C215.237 87.3474 214.818 87.2923 214.355 87.2923C213.362 87.2923 212.579 86.9835 212.094 86.4211C210.671 84.7228 212.568 81.8003 215.381 81.3592C217.52 81.0174 219.13 82.3076 218.744 84.0501C218.612 84.6456 218.381 85.1308 218.017 85.5609C217.873 85.7374 217.752 85.9579 217.752 86.0572C217.752 86.2888 219.583 88.3951 219.781 88.3951C219.858 88.3951 220.123 88.2187 220.366 88.0091C222.075 86.5534 222.45 83.7744 221.259 81.3703C220.619 80.0689 218.943 78.5581 217.796 78.2603C217.134 78.0949 215.789 78.0398 215.017 78.139Z" fill="black"/>
<path d="M28.399 85.572C28.2336 85.7705 27.7263 87.4798 27.7263 87.8548C27.7263 88.1194 27.9027 88.2077 30.4614 89.3325C31.9613 89.9832 33.2186 90.5456 33.2627 90.5897C33.3068 90.6338 31.7187 91.0088 29.7335 91.4278C27.7483 91.8469 26.094 92.2329 26.0609 92.288C25.9507 92.4424 25.1456 95.4531 25.2007 95.4972C25.3441 95.6405 36.7147 99.6437 36.836 99.5996C37.189 99.4673 37.7294 98.1439 37.9169 96.986L37.983 96.6L35.4244 95.6185C34.0127 95.0891 32.7444 94.5929 32.601 94.5157C32.3804 94.4054 32.8326 94.2841 35.7993 93.6004C37.6963 93.1592 39.3396 92.8063 39.4278 92.8063C39.6263 92.8063 39.6594 92.7291 40.2329 91.1301C40.5417 90.2699 40.5858 90.0383 40.4755 89.8839C40.3763 89.7516 30.3952 86.002 28.7189 85.4727C28.6196 85.4396 28.4762 85.4837 28.399 85.572Z" fill="black"/>
<path d="M222.549 89.6524C221.766 89.906 219.064 90.7883 216.55 91.5933C213.936 92.4425 211.962 93.1372 211.929 93.2255C211.885 93.3468 214.653 102.368 214.851 102.754C214.862 102.787 215.315 102.699 215.855 102.555C216.384 102.412 217.002 102.235 217.223 102.18C217.598 102.07 217.62 102.037 217.531 101.816C217.223 101.122 215.656 95.7398 215.734 95.6737C215.778 95.6296 216.296 95.4421 216.859 95.2436C217.62 95.001 217.928 94.9348 217.984 95.0341C218.028 95.1002 218.502 96.3684 219.031 97.8462C219.561 99.324 220.024 100.559 220.068 100.581C220.189 100.658 222.704 99.8423 222.748 99.7099C222.781 99.6327 222.417 98.3866 221.943 96.9419C221.469 95.4862 221.061 94.1959 221.039 94.0856C221.016 93.9202 221.138 93.843 221.711 93.6776C222.108 93.5673 222.45 93.4901 222.472 93.5232C222.494 93.5453 222.98 94.8355 223.542 96.3905C224.104 97.9455 224.612 99.2688 224.667 99.324C224.777 99.4342 227.093 98.7064 227.314 98.4969C227.479 98.3314 224.38 89.2333 224.149 89.2002C224.06 89.1892 223.344 89.3877 222.549 89.6524Z" fill="black"/>
<path d="M65.3124 198.455C65.0256 198.753 64.9815 198.852 65.0366 199.194C65.1138 199.646 65.3454 199.911 66.2829 200.672L66.9556 201.212L67.099 202.26C67.1872 202.932 67.1983 203.362 67.1321 203.429C66.9998 203.561 66.3491 203.34 65.5329 202.877C64.6286 202.359 63.9889 202.447 63.6139 203.142C63.4375 203.473 63.4264 203.616 63.5478 204.542C63.6139 205.105 63.7022 205.866 63.7352 206.23C63.9007 207.939 64.4631 209.02 65.544 209.715C66.4704 210.31 67.4299 210.001 67.4299 209.108C67.4299 208.557 67.3416 208.413 66.8123 208.038C66.5476 207.862 66.2498 207.564 66.1616 207.388C65.9851 207.035 65.6984 205.557 65.7976 205.458C65.8307 205.425 66.0954 205.447 66.3932 205.513C66.8343 205.612 67.0549 205.745 67.485 206.197C68.3122 207.035 69.5805 208.016 69.9555 208.105C70.176 208.149 70.4187 208.116 70.6392 208.005C70.8708 207.884 70.9591 207.873 70.926 207.972C70.8929 208.049 70.5731 208.81 70.1981 209.67C69.4371 211.424 69.3709 211.876 69.8011 212.295C70.165 212.67 70.8267 212.67 71.1907 212.306C71.3451 212.152 72.0178 210.74 72.7127 209.13C73.3964 207.531 74.003 206.186 74.0471 206.13C74.1684 206.009 75.3706 206.737 75.3706 206.925C75.3706 207.068 74.8412 208.325 73.4516 211.523C73.0545 212.428 72.7237 213.277 72.7237 213.398C72.7237 213.751 73.1317 214.324 73.4406 214.402C74.1905 214.589 74.5875 214.214 75.2272 212.725C76.694 209.285 77.2455 208.105 77.3778 208.127C77.455 208.138 77.7307 208.215 77.9844 208.292C78.6241 208.479 79.0101 208.325 79.2637 207.796C79.4623 207.399 79.4623 207.377 79.2637 206.98C79.1204 206.693 78.8667 206.461 78.4035 206.186C76.0213 204.818 70.1099 200.947 68.3894 199.624C67.8931 199.249 67.2424 198.753 66.9556 198.532C66.2608 198.003 65.7866 197.981 65.3124 198.455ZM72.1502 204.785C72.2605 204.895 72.1833 205.149 71.7642 206.053C71.2569 207.145 71.2348 207.178 71.1576 206.847C71.0914 206.616 70.8267 206.318 70.3194 205.91C69.9113 205.59 69.4481 205.171 69.2717 204.995C68.9849 204.686 68.9849 204.653 69.1283 204.344C69.2165 204.168 69.3048 203.826 69.3158 203.583C69.3268 203.34 69.3599 203.109 69.382 203.065C69.4151 202.988 71.8414 204.498 72.1502 204.785Z" fill="black"/>
<path d="M178.269 199.072C178.181 199.084 177.806 199.139 177.453 199.172C176.637 199.26 176.173 199.657 176.173 200.241C176.173 201.091 176.714 201.344 178.214 201.179C179.228 201.08 180.585 201.157 180.585 201.322C180.585 201.41 177.739 203.495 175.732 204.873C172.38 207.178 167.681 209.582 164.174 210.806C162.829 211.281 162.277 211.666 162.277 212.141C162.277 212.35 162.266 212.35 162.035 212.196C161.902 212.097 161.604 212.019 161.384 212.019C161.163 212.019 159.73 212.461 158.163 213.001C154.248 214.379 149.164 215.879 148.436 215.879C148.304 215.879 148.116 215.725 147.973 215.504C147.421 214.655 145.767 213.552 144.466 213.166C143.495 212.88 141.797 212.902 140.981 213.221C139.668 213.729 138.896 214.776 138.896 216.067C138.896 216.453 138.973 216.96 139.073 217.203C139.249 217.633 139.249 217.644 138.962 217.986C138.576 218.438 138.587 218.89 138.995 219.309C139.227 219.541 139.426 219.629 139.712 219.629C139.922 219.629 140.12 219.673 140.153 219.728C140.253 219.871 140.628 222.32 140.937 224.757C141.113 226.113 141.278 227.051 141.389 227.216C141.753 227.767 142.569 227.789 142.988 227.26C143.208 226.984 143.219 226.874 143.153 225.86C143.12 225.253 142.944 223.742 142.756 222.496C142.569 221.25 142.392 220.037 142.359 219.794L142.293 219.353L144.653 218.89C145.944 218.625 147.124 218.394 147.278 218.349C147.432 218.316 147.234 218.471 146.837 218.68C144.841 219.794 144.069 221.614 144.885 223.29C145.591 224.735 147.322 225.496 148.712 224.977C149.462 224.702 149.517 224.713 149.605 225.143C149.693 225.573 150.256 226.135 150.598 226.135C150.984 226.135 151.436 225.826 151.59 225.452C151.745 225.077 151.656 224.547 150.862 220.897C150.719 220.224 150.532 219.309 150.443 218.857C150.344 218.405 150.245 217.952 150.212 217.864C150.157 217.721 150.598 217.566 152.627 216.993C154.094 216.574 155.153 216.331 155.208 216.386C155.263 216.442 155.373 216.75 155.472 217.059L155.638 217.644L155.108 218.019C154.116 218.735 153.664 219.574 153.664 220.698C153.664 221.647 154.061 222.496 154.7 222.915C155.097 223.18 155.252 223.213 156.035 223.213C156.741 223.213 157.027 223.158 157.38 222.97C158.428 222.419 158.682 221.68 158.362 220.048C158.263 219.507 158.197 219.044 158.208 219.033C158.23 219.011 158.638 218.868 159.101 218.713L159.961 218.438L160.182 219.221C160.59 220.643 161.615 223.202 161.902 223.5C162.553 224.172 163.38 223.963 163.954 222.97C164.24 222.485 164.395 222.32 164.615 222.298C165.023 222.253 165.255 222.54 165.255 223.103C165.255 223.93 164.604 224.448 163.248 224.702C162.685 224.812 162.288 224.757 161.417 224.437C161.009 224.283 160.899 224.283 160.579 224.415C159.531 224.845 159.84 226.091 161.097 226.554C161.957 226.874 162.674 226.929 163.689 226.753C165.917 226.367 167.24 225.11 167.328 223.301C167.406 221.934 166.909 220.974 165.884 220.456C165.167 220.103 164.218 220.081 163.501 220.401C163.237 220.522 162.983 220.621 162.939 220.621C162.762 220.621 161.836 217.511 161.836 216.927C161.836 216.739 161.792 216.541 161.726 216.475C161.626 216.375 160.954 214.512 160.954 214.324C160.954 214.291 161.174 214.17 161.45 214.071C161.979 213.861 162.387 213.442 162.387 213.1C162.387 212.88 162.398 212.88 162.674 213.067C162.884 213.199 163.115 213.244 163.479 213.21C163.909 213.155 165.917 212.461 167.626 211.755L168.067 211.567L167.792 211.799C167.648 211.931 167.053 212.317 166.468 212.648C164.803 213.629 164.428 213.872 164.163 214.159C163.821 214.523 163.821 215.14 164.163 215.515C164.395 215.747 164.505 215.78 164.979 215.747C165.277 215.714 165.608 215.659 165.696 215.626C165.839 215.559 165.895 215.67 166.005 216.188C166.248 217.346 167.141 218.493 168.156 218.912C168.63 219.11 169.578 219.132 169.92 218.956C170.88 218.46 170.67 217.203 169.6 217.037C168.839 216.927 168.63 216.817 168.376 216.442C168.078 215.989 167.968 215.46 168.067 214.931C168.144 214.468 168.817 213.718 169.225 213.618C169.501 213.552 169.534 213.607 170.163 215.129C171.288 217.886 171.497 218.195 172.214 218.195C172.688 218.195 173.196 217.644 173.196 217.136C173.196 217.037 172.777 215.934 172.258 214.699C171.74 213.464 171.343 212.405 171.376 212.339C171.508 212.141 172.534 211.689 173.019 211.622C173.449 211.556 173.527 211.578 173.67 211.81C173.89 212.163 174.012 212.813 173.924 213.266C173.89 213.464 173.681 213.894 173.46 214.225C173.141 214.721 173.085 214.909 173.129 215.218C173.218 215.791 173.67 216.144 174.221 216.067C174.784 215.989 175.214 215.581 175.655 214.666C175.975 214.026 176.008 213.85 176.008 212.957C176.008 211.655 175.765 210.961 175.082 210.255C174.398 209.538 173.372 209.295 172.335 209.582C172.148 209.637 171.982 209.67 171.982 209.648C171.982 209.626 172.567 209.273 173.284 208.876C173.99 208.468 175.181 207.741 175.92 207.255L177.265 206.373L177.773 206.726C178.07 206.935 178.269 207.156 178.269 207.288C178.269 207.553 177.739 207.895 177.166 207.983C176.405 208.104 176.052 208.932 176.438 209.692C176.791 210.365 177.85 211.126 178.864 211.413C180.265 211.821 181.566 211.435 182.846 210.244C183.221 209.88 183.563 209.593 183.596 209.593C183.618 209.593 183.706 209.748 183.783 209.924C183.96 210.354 184.5 210.806 184.831 210.806C185.526 210.806 185.945 210.321 185.846 209.626C185.779 209.13 183.585 204.862 182.791 203.671C182.493 203.208 182.25 202.822 182.261 202.811C182.636 202.59 183.508 201.896 183.673 201.686C183.982 201.289 183.96 200.76 183.607 200.396C183.441 200.241 183.243 200.109 183.166 200.109C183.088 200.109 182.68 199.933 182.261 199.723C181.842 199.503 181.158 199.26 180.739 199.172C180.067 199.028 178.721 198.973 178.269 199.072ZM181.809 206.34C182.008 206.748 182.129 207.178 182.129 207.476C182.129 207.884 182.063 208.016 181.622 208.49C181.059 209.097 180.364 209.483 179.835 209.483C179.372 209.483 179.317 209.351 179.67 209.031C180.651 208.126 180.574 206.329 179.515 205.403C179.306 205.215 179.14 205.039 179.162 205.028C179.184 205.006 179.493 204.785 179.857 204.531L180.508 204.079L181.004 204.884C181.269 205.314 181.644 205.976 181.809 206.34ZM143.55 215.118C144.4 215.306 145.955 216.144 145.955 216.431C145.955 216.541 141.797 217.346 141.609 217.28C141.4 217.203 140.992 216.409 140.992 216.1C140.992 215.251 142.117 214.821 143.55 215.118ZM159.134 215.592C159.244 215.912 159.31 216.254 159.277 216.342C159.222 216.475 158.02 216.927 157.711 216.927C157.623 216.927 157.182 215.648 157.248 215.581C157.281 215.537 158.759 215.019 158.869 215.008C158.902 214.997 159.024 215.262 159.134 215.592ZM156.311 220.478C156.421 221.04 156.355 221.217 156.035 221.151C155.781 221.106 155.693 220.533 155.88 220.18C156.068 219.838 156.189 219.915 156.311 220.478ZM148.789 221.305L149.032 222.331L148.679 222.628C147.984 223.235 147.091 223.092 146.771 222.309C146.572 221.845 146.683 221.47 147.146 221.029C147.455 220.754 148.238 220.301 148.436 220.29C148.502 220.29 148.668 220.754 148.789 221.305Z" fill="black"/>
<path d="M87.6787 207.112C86.7633 207.432 85.9361 208.468 85.7597 209.494C85.6935 209.902 85.6384 209.979 85.3295 210.056C84.8884 210.167 84.6347 210.52 84.6347 211.016C84.6347 211.325 84.723 211.479 85.1421 211.865L85.6384 212.339L84.5906 215.581C84.0061 217.368 83.5319 219 83.5319 219.221C83.5319 219.706 84.0282 220.18 84.5465 220.18C85.2193 220.18 85.4068 219.827 86.5427 216.364C87.2706 214.181 87.6456 213.188 87.7448 213.21C87.822 213.233 88.2853 213.387 88.7705 213.563C93.0276 215.096 93.8327 215.405 93.8768 215.526C93.9099 215.637 93.8327 215.648 93.5019 215.581C93.2592 215.537 92.6526 215.493 92.1343 215.493C90.9322 215.493 90.116 215.857 89.5425 216.64C88.2301 218.427 89.2337 220.654 91.7042 221.404L92.4652 221.636L92.399 222.32C92.3328 222.948 92.3549 223.025 92.6306 223.356C93.1048 223.919 93.943 223.83 94.2739 223.18C94.3511 223.014 94.7591 221.393 95.1672 219.574C95.5753 217.754 95.9392 216.232 95.9833 216.199C96.0164 216.166 97.0421 216.42 98.2553 216.773C99.4684 217.125 100.483 217.423 100.516 217.423C100.549 217.434 100.274 217.511 99.9096 217.6C98.9942 217.82 98.3545 218.228 98.0898 218.747C97.8251 219.265 97.8031 220.026 98.0347 220.577C98.167 220.886 98.167 221.018 98.0678 221.206C97.8472 221.603 97.9023 222.926 98.167 223.489C98.6082 224.459 99.4023 225.033 100.637 225.253C101.288 225.374 102.49 225.341 102.887 225.176C103.031 225.132 103.053 225.176 102.998 225.396C102.887 225.838 103.13 226.444 103.494 226.632C103.891 226.841 104.089 226.841 104.487 226.632C104.895 226.422 105.082 225.893 105.358 224.139C105.611 222.606 106.141 219 106.141 218.846C106.141 218.791 106.251 218.747 106.394 218.747C106.758 218.747 108.501 219.099 108.611 219.188C108.655 219.243 108.6 220.676 108.468 222.408C108.148 226.665 108.159 226.841 108.556 227.249C108.986 227.679 109.46 227.679 109.891 227.26C110.266 226.874 110.266 226.907 110.552 222.783C110.685 221.029 110.806 219.552 110.839 219.507C110.861 219.463 111.159 219.452 111.49 219.485C112.218 219.563 112.703 219.386 112.924 218.956C113.122 218.592 113.133 218.405 112.968 218.052C112.769 217.622 112.449 217.511 110.729 217.302C107.806 216.927 102.137 215.703 98.4758 214.655C95.7958 213.883 94.5606 213.453 94.5606 213.299C94.5606 212.979 93.568 210.442 93.2261 209.858C92.7629 209.108 91.8034 208.138 91.0755 207.707C89.9285 207.024 88.583 206.792 87.6787 207.112ZM89.7962 209.417C90.5462 209.803 91.2299 210.531 91.649 211.413C92.0461 212.218 92.1122 212.516 91.8917 212.416C91.8145 212.394 91.2741 212.207 90.7006 212.019C89.1234 211.501 88.0647 211.027 87.9434 210.806C87.6897 210.343 87.9213 209.273 88.2963 209.108C88.5499 208.998 89.2668 209.152 89.7962 209.417ZM93.3364 217.688C93.4247 217.754 93.3916 217.964 93.1159 219.099C92.9835 219.618 92.7519 219.64 91.9027 219.21C91.2079 218.857 90.9542 218.482 91.1527 218.052C91.2189 217.897 91.3843 217.721 91.5167 217.655C91.7373 217.533 93.1269 217.567 93.3364 217.688ZM103.847 218.184L104.112 218.283L103.814 220.39C103.648 221.537 103.483 222.584 103.45 222.695C103.395 222.86 103.163 222.948 102.49 223.103C101.531 223.301 100.869 223.268 100.428 222.981C100.152 222.794 99.9096 222.287 100.042 222.154C100.086 222.11 100.538 222.11 101.035 222.165C102.104 222.276 102.623 222.165 102.942 221.757C103.24 221.382 103.218 220.919 102.898 220.555C102.667 220.279 102.523 220.235 101.465 220.114C100.174 219.949 99.9868 219.893 100.185 219.695C100.262 219.618 100.715 219.585 101.476 219.596C102.634 219.618 102.634 219.618 102.965 219.287C103.251 219 103.295 218.901 103.24 218.526C103.174 218.041 103.306 217.975 103.847 218.184Z" fill="black"/>
<path d="M128.143 218.537C126.93 218.592 124.669 218.702 123.125 218.791C121.581 218.879 120.18 218.923 120.015 218.89C119.497 218.791 118.703 218.967 118.427 219.243C118.052 219.618 118.063 220.268 118.449 220.632C118.703 220.875 118.846 220.897 120.103 220.952L121.482 221.007L121.78 221.537C122.243 222.397 121.846 222.695 120.743 222.32C120.258 222.154 120.125 222.143 119.827 222.276C119.43 222.441 119.155 222.882 119.155 223.367C119.155 223.83 120.004 225.396 120.566 225.981C121.151 226.599 122.155 227.073 123.18 227.238C123.875 227.348 124.261 227.337 125.143 227.172C125.43 227.117 125.441 227.128 125.441 227.569C125.441 228.131 125.684 228.727 125.97 228.881C126.412 229.113 126.941 229.025 127.239 228.683C127.459 228.407 127.515 228.209 127.57 227.282C127.625 226.422 127.515 222.496 127.393 220.952C127.371 220.687 127.404 220.676 128 220.643C128.584 220.61 128.639 220.632 128.684 220.864C128.717 221.007 128.838 222.485 128.97 224.15C129.279 228.253 129.279 228.22 129.643 228.584C130.051 228.992 130.514 228.992 130.967 228.584C131.308 228.275 131.319 228.253 131.297 227.393C131.286 226.918 131.165 225.209 131.022 223.599C130.878 221.989 130.79 220.643 130.812 220.588C130.834 220.544 131.11 220.511 131.408 220.511C132.091 220.511 132.533 220.29 132.72 219.86C132.897 219.408 132.742 218.978 132.279 218.658C131.871 218.383 131.893 218.383 128.143 218.537ZM125.298 222.441C125.452 224.261 125.408 224.636 124.967 224.966C124.426 225.363 122.761 225.209 122.309 224.713C122.132 224.514 122.144 224.503 122.43 224.437C123.235 224.239 124.007 223.378 124.173 222.485C124.239 222.143 124.14 221.526 123.941 221.007C123.897 220.897 124.018 220.842 124.415 220.809C124.702 220.787 125 220.776 125.055 220.787C125.121 220.798 125.232 221.537 125.298 222.441Z" fill="black"/>
</svg>
